<svg xmlns="http://www.w3.org/2000/svg" xmlns:xlink="http://www.w3.org/1999/xlink" width="112.829" height="116.829" viewBox="0 0 112.829 116.829">
  <defs>
    <filter id="Path_66" x="0" y="0" width="112.829" height="116.829" filterUnits="userSpaceOnUse">
      <feOffset dy="13" input="SourceAlpha"/>
      <feGaussianBlur stdDeviation="3" result="blur"/>
      <feFlood flood-opacity="0.161"/>
      <feComposite operator="in" in2="blur"/>
      <feComposite in="SourceGraphic"/>
    </filter>
    <clipPath id="clip-path">
      <rect id="Rectangle_353" data-name="Rectangle 353" width="94.829" height="94.829" fill="none"/>
    </clipPath>
  </defs>
  <g id="Group_574" data-name="Group 574" transform="translate(901 -1396)">
    <g transform="matrix(1, 0, 0, 1, -901, 1396)" filter="url(#Path_66)">
      <path id="Path_66-2" data-name="Path 66" d="M94.829,47.415A47.415,47.415,0,1,1,47.415,0,47.415,47.415,0,0,1,94.829,47.415" transform="translate(9)" fill="#fff"/>
    </g>
    <g id="Group_573" data-name="Group 573" transform="translate(-892 1396)" clip-path="url(#clip-path)">
      <path id="Path_67" data-name="Path 67" d="M32.17,20.23a2.856,2.856,0,0,0-.054-2.119,10.77,10.77,0,0,0,3.776-.4c.535.286,1.061.541,1.563.758,1.026.444,2.726,1.056,3.708.749a1.1,1.1,0,0,0,.452-.262c1.191-1.184,1.678-3.5.948-4.5a1.215,1.215,0,0,0-1.7-.234,13.3,13.3,0,0,0-1.355.857,13.838,13.838,0,0,1-3.535,1.9,24.022,24.022,0,0,1-4.137-2.89,16.542,16.542,0,0,0,6.709-.507.339.339,0,0,0,.186-.491,11.055,11.055,0,0,0-1.907-2.44,14.507,14.507,0,0,0,3.252-2.329.335.335,0,0,0-.05-.52c-3.243-2.143-8.947-2.459-11.344-1.217a1.753,1.753,0,0,0-1.132,1.483A7.448,7.448,0,0,0,29.69,12.9,11.059,11.059,0,0,1,26.2,11.062a.336.336,0,1,0-.416.528,12.079,12.079,0,0,0,4.8,2.275,23.284,23.284,0,0,0,4.464,3.373,11.075,11.075,0,0,1-4.678-.032c-4.217-.853-6.661-4.3-7.835-5.949-.483-.68-.688-.961-.918-1.059a3.4,3.4,0,0,0-1.78.074c.286-.32.563-.63.645-.717.123-.13.149-.316.2-.684a3.9,3.9,0,0,1,1.4-2.877c1.115-.751,2.455-.5,4.094.766a.336.336,0,1,0,.411-.53c-1.873-1.448-3.516-1.715-4.882-.795A4.543,4.543,0,0,0,20.026,8.78c-.017.128-.039.281-.056.351-.273.294-1.347,1.5-1.394,1.557a.336.336,0,0,0,.359.541,5.673,5.673,0,0,1,2.425-.413,6.853,6.853,0,0,1,.636.831c1.147,1.615,3.455,4.862,7.421,6.014.234.578.615,1.992.011,2.693m1.485-7.122C29.3,11.609,28.172,9.8,28.22,8.091c.011-.34.271-.645.771-.907,2.109-1.093,7.226-.833,10.294.953a13.793,13.793,0,0,1-3.022,2.039,5.658,5.658,0,0,0-5.8-.881.334.334,0,0,0-.113.5A4.113,4.113,0,0,0,33.4,11.5a6.172,6.172,0,0,0,2.762-.541,9.768,9.768,0,0,1,1.754,2.1,16.251,16.251,0,0,1-7.008.171m2.535-2.4a3.363,3.363,0,0,1-2.271-1.1,4.9,4.9,0,0,1,4.375.745,5.149,5.149,0,0,1-2.1.353M36.766,17.4a15.578,15.578,0,0,0,3.122-1.769,12.869,12.869,0,0,1,1.284-.816,1.64,1.64,0,0,1,.253-.106c.4-.126.543.069.6.141.437.6.21,2.542-.877,3.624-.3.3-1.472.216-3.423-.626-.307-.134-.628-.284-.955-.448M31.393,20.28c-.37.022-.762.039-1.169.052a3.79,3.79,0,0,0-.032-2.481c.019,0,.037.011.054.013.377.076.736.13,1.087.173a2.19,2.19,0,0,1,.061,2.243" transform="translate(21.54 5.708)" fill="#83a0a4"/>
      <path id="Path_68" data-name="Path 68" d="M15.035,11.424H28.977c9.694,0,14.262,4.289,14.262,13.182v1.589c0,6.116-2.243,9.768-7.131,11.437v.158C41.717,39.3,44.28,43.349,44.28,50.1v3.018c0,9.294-4.648,13.9-14.422,13.9H15.035Zm12.9,23.982c6.01,0,8.893-2.461,8.893-8.179V25.242c0-5.72-2.323-8.1-8.012-8.1H21.445V35.406ZM29.858,61.3c5.609,0,7.932-2.384,7.932-8.181V49.941c0-6.434-2.643-8.9-9.534-8.9H21.445V61.3Z" transform="translate(17.514 13.308)" fill="#1a2a30"/>
      <path id="Path_69" data-name="Path 69" d="M20.855,59.519a55.834,55.834,0,0,1,3.371-10.411c.79-1.968,1.535-3.825,2.137-5.765a18.264,18.264,0,0,0,.478-10.322,5.736,5.736,0,0,0,2.184-.375c4.014-1.5,6.689-7.155,7.311-9.019.34-1.015,1.632-4.388,4.027-5.087a.375.375,0,0,0-.05-.732l0,0c-2.639-.377-6.585.08-9.01,1.977a16.4,16.4,0,0,0-3.49,4.367c-1.059,1.7-1.972,3.156-3.141,3.392a2.646,2.646,0,0,1-2.028-.63c-2.661-1.881-3.245-5.429-3.76-8.56a18.027,18.027,0,0,0-.885-3.817,13.63,13.63,0,0,1,5.395,4.739,8,8,0,0,0-.747,2.319,1.623,1.623,0,0,0,.825,1.511,1.032,1.032,0,0,0,1.1-.076,1.431,1.431,0,0,0,.42-1.518,8.072,8.072,0,0,0-.756-2.273,15.882,15.882,0,0,1,2.936-4.522,2.117,2.117,0,0,1,1.453-.73c.684.061,2.119.948,3,3.126a.375.375,0,1,0,.7-.279c-1.091-2.708-2.866-3.537-3.639-3.6a2.776,2.776,0,0,0-2.022.931,15.733,15.733,0,0,0-2.879,4.284c-1.58-2.433-4.315-4.029-6.891-5.367a.376.376,0,0,0-.379.647c.961.636,1.273,2.542,1.637,4.743.511,3.115,1.147,6.99,4.066,9.053a3.355,3.355,0,0,0,2.613.753c1.485-.3,2.479-1.89,3.63-3.732a15.837,15.837,0,0,1,3.312-4.172,11.573,11.573,0,0,1,7.107-1.935,10.208,10.208,0,0,0-3.245,4.949c-.483,1.446-3.059,7.135-6.86,8.553a4.958,4.958,0,0,1-2.167.307,6.345,6.345,0,0,0-.933-1.821,2,2,0,0,0-2.072-.805,1.165,1.165,0,0,0-.875.95c-.032.251,0,.9.94,1.455a6.979,6.979,0,0,0,2.39.911,17.694,17.694,0,0,1-.4,10.179c-.593,1.912-1.334,3.756-2.115,5.709a54.857,54.857,0,0,0-3.485,10.93m5.709-27.652a6.471,6.471,0,0,1-1.712-.725c-.388-.229-.6-.5-.576-.714a.424.424,0,0,1,.34-.32.85.85,0,0,1,.368-.019,1.515,1.515,0,0,1,.914.582,4.716,4.716,0,0,1,.667,1.2M23.825,20.171a7.464,7.464,0,0,1,.422,1.472c.078.446-.017.7-.132.784a.309.309,0,0,1-.314,0,.9.9,0,0,1-.407-.844,5.392,5.392,0,0,1,.431-1.416" transform="translate(19.026 15.191)" fill="#83a0a4"/>
      <path id="Path_70" data-name="Path 70" d="M20.005,59.789A55.027,55.027,0,0,1,23.5,48.841l.011-.028c.779-1.942,1.515-3.776,2.1-5.674a17.575,17.575,0,0,0,.416-10.077,7.157,7.157,0,0,1-2.366-.914c-.987-.585-1.013-1.271-.981-1.539a1.245,1.245,0,0,1,.935-1.02,2.086,2.086,0,0,1,2.161.831,6.141,6.141,0,0,1,.929,1.795c.056,0,.11.006.167.009a4.919,4.919,0,0,0,1.909-.316c3.771-1.407,6.33-7.062,6.808-8.5a10.707,10.707,0,0,1,3.074-4.843,11.481,11.481,0,0,0-6.8,1.922,15.774,15.774,0,0,0-3.295,4.154C27.4,26.5,26.4,28.1,24.881,28.407a3.439,3.439,0,0,1-2.678-.766c-2.946-2.083-3.587-5.977-4.1-9.112-.359-2.182-.669-4.066-1.6-4.683a.46.46,0,0,1,.465-.792c2.455,1.273,5.2,2.834,6.841,5.269a15.287,15.287,0,0,1,2.832-4.174,2.9,2.9,0,0,1,2.018-.957c.024,0,.045,0,.069,0,.8.061,2.6.9,3.708,3.648a.46.46,0,0,1-.6.6.468.468,0,0,1-.249-.253c-.855-2.124-2.249-3.013-2.927-3.074l-.03,0a2.1,2.1,0,0,0-1.355.71,15.4,15.4,0,0,0-2.9,4.457,8.343,8.343,0,0,1,.747,2.262,1.513,1.513,0,0,1-.455,1.6,1.118,1.118,0,0,1-1.186.082A1.714,1.714,0,0,1,22.6,21.64a7.88,7.88,0,0,1,.74-2.314,13.408,13.408,0,0,0-5.135-4.553,20.233,20.233,0,0,1,.8,3.611c.511,3.113,1.091,6.644,3.724,8.5A2.563,2.563,0,0,0,24.7,27.5c1.132-.227,2.037-1.678,3.089-3.36a16.473,16.473,0,0,1,3.5-4.384c2.446-1.909,6.419-2.366,9.079-1.992a.461.461,0,0,1,.061.9c-2.355.688-3.635,4.024-3.97,5.031-.623,1.875-3.314,7.564-7.361,9.073a5.909,5.909,0,0,1-2.1.381,18.274,18.274,0,0,1-.509,10.261c-.6,1.935-1.344,3.789-2.139,5.769a55.725,55.725,0,0,0-3.366,10.4l-.165-.032A55.881,55.881,0,0,1,24.2,49.1c.786-1.957,1.528-3.808,2.126-5.739a18.023,18.023,0,0,0,.478-10.274l-.03-.11.115,0a5.7,5.7,0,0,0,2.154-.368c3.983-1.487,6.642-7.114,7.259-8.969.342-1.026,1.65-4.429,4.083-5.139a.292.292,0,0,0-.041-.569c-2.624-.372-6.54.078-8.947,1.959a16.341,16.341,0,0,0-3.468,4.345c-1.069,1.71-1.992,3.187-3.2,3.429a2.737,2.737,0,0,1-2.1-.643c-2.691-1.9-3.278-5.468-3.793-8.614a18.2,18.2,0,0,0-.881-3.8l-.1-.229.214.121a13.811,13.811,0,0,1,5.427,4.771l.022.037-.017.039a8.156,8.156,0,0,0-.743,2.284,1.547,1.547,0,0,0,.779,1.435.944.944,0,0,0,1.009-.067,1.348,1.348,0,0,0,.39-1.433,8.087,8.087,0,0,0-.751-2.251l-.017-.037.017-.037A15.638,15.638,0,0,1,27.154,14.7a2.263,2.263,0,0,1,1.481-.756l.037,0c.717.065,2.187.985,3.068,3.18a.3.3,0,0,0,.158.16.294.294,0,0,0,.223,0,.288.288,0,0,0,.16-.377c-1.074-2.671-2.8-3.488-3.566-3.546l-.063,0a2.751,2.751,0,0,0-1.9.911,15.4,15.4,0,0,0-2.86,4.256l-.065.136-.082-.126c-1.606-2.472-4.382-4.05-6.858-5.336a.3.3,0,0,0-.385.11.291.291,0,0,0,.091.392c.992.656,1.308,2.574,1.673,4.8.509,3.1,1.143,6.956,4.033,9a3.244,3.244,0,0,0,2.546.738c1.448-.29,2.433-1.864,3.574-3.691a15.886,15.886,0,0,1,3.334-4.2c2.472-1.933,6.107-1.983,7.161-1.951l.258.006-.212.147c-1.851,1.282-2.864,3.858-3.215,4.9-.483,1.455-3.076,7.177-6.91,8.607a5,5,0,0,1-2.2.312l-.056,0-.017-.052a6.413,6.413,0,0,0-.918-1.795,1.921,1.921,0,0,0-1.983-.777,1.079,1.079,0,0,0-.814.879c-.03.234,0,.838.9,1.373a6.983,6.983,0,0,0,2.36.9l.052.009.015.05a17.712,17.712,0,0,1-.4,10.229c-.593,1.9-1.329,3.741-2.109,5.685l-.013.03a54.956,54.956,0,0,0-3.479,10.913Zm5.774-27.554a6.555,6.555,0,0,1-1.736-.734c-.424-.251-.649-.541-.617-.8a.511.511,0,0,1,.4-.394.993.993,0,0,1,.4-.022,1.577,1.577,0,0,1,.966.613l-.065.054.065-.054a4.773,4.773,0,0,1,.682,1.221l.065.154Zm-1.907-1.762c-.158.048-.264.143-.277.251-.024.182.18.422.535.632a6.541,6.541,0,0,0,1.524.671,4.52,4.52,0,0,0-.587-1.02,1.411,1.411,0,0,0-.864-.55.745.745,0,0,0-.1-.011.816.816,0,0,0-.234.026m-.063-7.921a.983.983,0,0,1-.452-.918,5.342,5.342,0,0,1,.437-1.448l.078-.195.078.195a7.291,7.291,0,0,1,.426,1.487c.071.411.011.736-.165.866A.328.328,0,0,1,24,22.6a.524.524,0,0,1-.193-.052m-.284-.92h0a.821.821,0,0,0,.359.769.23.23,0,0,0,.225,0c.074-.056.175-.264.1-.7a7.376,7.376,0,0,0-.338-1.253,4.638,4.638,0,0,0-.346,1.182" transform="translate(18.982 15.146)" fill="#83a0a4"/>
      <path id="Path_71" data-name="Path 71" d="M15.035,34.466v5.709H29.858c6.267,0,10.415-1.9,12.593-5.709Z" transform="translate(17.514 40.149)" fill="#1a2a30"/>
    </g>
  </g>
</svg>
