<svg id="Layer_1-2" xmlns="http://www.w3.org/2000/svg" width="280" height="116.17" viewBox="0 0 280 116.17">
  <path id="Path_2" data-name="Path 2" d="M237.336,31.42a34.691,34.691,0,0,1,2.1-6.492c.489-1.229.96-2.384,1.33-3.594a11.433,11.433,0,0,0,.3-6.435,3.557,3.557,0,0,0,1.361-.232c2.5-.935,4.171-4.46,4.56-5.626.213-.634,1.016-2.735,2.509-3.174a.238.238,0,0,0,.169-.245.228.228,0,0,0-.2-.213h0a8.069,8.069,0,0,0-5.62,1.229A10.255,10.255,0,0,0,241.67,9.36c-.659,1.054-1.229,1.97-1.957,2.114a1.666,1.666,0,0,1-1.267-.4c-1.662-1.173-2.026-3.387-2.346-5.338a11.292,11.292,0,0,0-.552-2.377,8.43,8.43,0,0,1,3.362,2.954,4.9,4.9,0,0,0-.464,1.449,1,1,0,0,0,.514.941.626.626,0,0,0,.684-.05.892.892,0,0,0,.263-.947,5.162,5.162,0,0,0-.47-1.418,10.011,10.011,0,0,1,1.832-2.823,1.316,1.316,0,0,1,.9-.458c.427.038,1.323.59,1.869,1.951a.244.244,0,0,0,.307.132.241.241,0,0,0,.132-.307c-.677-1.687-1.788-2.208-2.271-2.246a1.7,1.7,0,0,0-1.261.583A9.715,9.715,0,0,0,239.155,5.8a10.9,10.9,0,0,0-4.3-3.343.232.232,0,0,0-.232.4c.6.4.8,1.587,1.022,2.961.32,1.944.715,4.359,2.534,5.645a2.082,2.082,0,0,0,1.631.47c.928-.188,1.549-1.179,2.264-2.327A9.874,9.874,0,0,1,244.141,7a7.2,7.2,0,0,1,4.435-1.2,6.392,6.392,0,0,0-2.026,3.086c-.3.9-1.907,4.447-4.278,5.332a3.138,3.138,0,0,1-1.349.194,3.953,3.953,0,0,0-.583-1.135,1.25,1.25,0,0,0-1.292-.5.729.729,0,0,0-.546.59c-.019.157,0,.558.583.909a4.435,4.435,0,0,0,1.493.571,11.028,11.028,0,0,1-.251,6.348c-.37,1.192-.834,2.34-1.317,3.563a34.61,34.61,0,0,0-2.177,6.818m3.55-17.249a3.887,3.887,0,0,1-1.066-.452c-.245-.144-.376-.307-.358-.445a.279.279,0,0,1,.213-.2.554.554,0,0,1,.232-.013.942.942,0,0,1,.571.364,2.922,2.922,0,0,1,.414.746Zm-1.2-7.445a4.4,4.4,0,0,1,.263.916c.05.276-.013.433-.082.489a.179.179,0,0,1-.194,0,.567.567,0,0,1-.251-.527,3.5,3.5,0,0,1,.27-.884Z" transform="translate(-87.969 -0.881)" fill="#95afb3"/>
  <path id="Path_3" data-name="Path 3" d="M236.74,31.531a34.288,34.288,0,0,1,2.177-6.824v-.019c.5-1.211.953-2.352,1.317-3.538a10.972,10.972,0,0,0,.257-6.285,4.479,4.479,0,0,1-1.474-.571c-.615-.364-.634-.79-.608-.96a.775.775,0,0,1,.583-.634,1.292,1.292,0,0,1,1.349.521,3.836,3.836,0,0,1,.577,1.116h.107a3.129,3.129,0,0,0,1.192-.194c2.352-.878,3.945-4.4,4.246-5.3a6.624,6.624,0,0,1,1.919-3.017,7.151,7.151,0,0,0-4.24,1.2,9.819,9.819,0,0,0-2.057,2.59c-.721,1.154-1.349,2.158-2.3,2.346a2.146,2.146,0,0,1-1.668-.477c-1.838-1.3-2.239-3.726-2.559-5.683-.226-1.361-.414-2.534-1-2.923a.281.281,0,0,1-.088-.383.285.285,0,0,1,.383-.107,11.13,11.13,0,0,1,4.265,3.287,9.54,9.54,0,0,1,1.763-2.6,1.786,1.786,0,0,1,1.261-.6h.044c.5.038,1.625.565,2.315,2.277a.268.268,0,0,1,0,.22.284.284,0,0,1-.157.151.3.3,0,0,1-.22,0,.318.318,0,0,1-.157-.157c-.533-1.323-1.405-1.882-1.825-1.919h-.019a1.312,1.312,0,0,0-.847.439,9.606,9.606,0,0,0-1.806,2.779,5.252,5.252,0,0,1,.464,1.411.945.945,0,0,1-.282,1,.7.7,0,0,1-.74.05,1.062,1.062,0,0,1-.546-.991,5.04,5.04,0,0,1,.458-1.443,8.392,8.392,0,0,0-3.2-2.841,12.558,12.558,0,0,1,.5,2.252c.32,1.944.684,4.146,2.321,5.306a1.575,1.575,0,0,0,1.223.383c.709-.144,1.273-1.047,1.926-2.095a10.334,10.334,0,0,1,2.183-2.735,8.154,8.154,0,0,1,5.664-1.242.293.293,0,0,1,.245.263.286.286,0,0,1-.207.295c-1.468.427-2.264,2.509-2.478,3.136-.389,1.167-2.07,4.717-4.591,5.658a3.692,3.692,0,0,1-1.311.238,11.4,11.4,0,0,1-.32,6.4c-.376,1.211-.84,2.365-1.336,3.6a34.95,34.95,0,0,0-2.1,6.486l-.1-.019a34.981,34.981,0,0,1,2.108-6.517c.489-1.223.953-2.377,1.323-3.582a11.28,11.28,0,0,0,.3-6.41l-.019-.069h.069a3.556,3.556,0,0,0,1.342-.226c2.484-.928,4.14-4.435,4.529-5.595.213-.64,1.029-2.76,2.547-3.205a.183.183,0,0,0,.132-.188.18.18,0,0,0-.157-.169,8.031,8.031,0,0,0-5.582,1.223,10.175,10.175,0,0,0-2.164,2.71c-.665,1.066-1.242,1.988-1.995,2.139a1.7,1.7,0,0,1-1.3-.4C236.7,9.9,236.332,7.67,236.012,5.707a11.514,11.514,0,0,0-.552-2.371l-.063-.144.132.075a8.642,8.642,0,0,1,3.387,2.973l.013.025-.013.025a5.184,5.184,0,0,0-.464,1.424.968.968,0,0,0,.483.9.579.579,0,0,0,.627-.044.852.852,0,0,0,.245-.9,5.013,5.013,0,0,0-.47-1.405l-.013-.025.013-.025a9.61,9.61,0,0,1,1.844-2.835,1.381,1.381,0,0,1,.922-.47h.025c.445.038,1.361.615,1.913,1.982a.183.183,0,0,0,.238.1.184.184,0,0,0,.1-.094.176.176,0,0,0,0-.138c-.671-1.668-1.75-2.177-2.227-2.208h-.038a1.721,1.721,0,0,0-1.186.571,9.481,9.481,0,0,0-1.781,2.653l-.044.082-.05-.075a10.874,10.874,0,0,0-4.278-3.331.182.182,0,0,0-.182.314c.621.408.815,1.606,1.041,2.992.32,1.932.715,4.334,2.515,5.608a2,2,0,0,0,1.587.458c.9-.182,1.518-1.16,2.233-2.3a9.851,9.851,0,0,1,2.076-2.616,7.454,7.454,0,0,1,4.466-1.217h.163l-.132.094a6.415,6.415,0,0,0-2.007,3.061c-.3.909-1.919,4.472-4.309,5.369a3.142,3.142,0,0,1-1.374.194h-.031l-.013-.038a4.2,4.2,0,0,0-.571-1.123A1.193,1.193,0,0,0,239,12.764a.667.667,0,0,0-.508.546c-.019.144,0,.521.558.853a4.461,4.461,0,0,0,1.474.565h.031l.013.038a11.022,11.022,0,0,1-.251,6.379c-.37,1.185-.828,2.333-1.317,3.544v.019a33.557,33.557,0,0,0-2.177,6.806l-.1-.019Zm3.6-17.186a4.1,4.1,0,0,1-1.085-.458c-.263-.157-.408-.339-.383-.5a.306.306,0,0,1,.251-.245.557.557,0,0,1,.251-.013.982.982,0,0,1,.6.383l-.038.031.038-.031a3.078,3.078,0,0,1,.427.759l.038.094-.1-.025Zm-1.186-1.1a.227.227,0,0,0-.176.157c-.013.113.113.263.332.4a4.1,4.1,0,0,0,.953.42,2.975,2.975,0,0,0-.364-.634h0a.9.9,0,0,0-.539-.345H239.3a.366.366,0,0,0-.144.019ZM239.117,8.3a.6.6,0,0,1-.282-.571h0a3.555,3.555,0,0,1,.27-.9l.05-.119.05.119a4.633,4.633,0,0,1,.263.928c.044.257.006.458-.1.539a.192.192,0,0,1-.132.038.307.307,0,0,1-.119-.031Zm-.182-.571h0a.5.5,0,0,0,.226.477c.031.013.094.038.138,0s.107-.163.063-.439a4.66,4.66,0,0,0-.213-.784,2.551,2.551,0,0,0-.213.74Z" transform="translate(-87.937 -0.853)" fill="#95afb3"/>
  <path id="Path_4" data-name="Path 4" d="M336.689,36.492a2.516,2.516,0,0,0-.044-1.838,9.278,9.278,0,0,0,3.274-.351c.464.251.922.47,1.355.659.891.383,2.365.916,3.218.646a.989.989,0,0,0,.4-.226c1.035-1.029,1.455-3.03.822-3.9a1.051,1.051,0,0,0-1.474-.2,10.533,10.533,0,0,0-1.173.746,11.862,11.862,0,0,1-3.067,1.65,20.6,20.6,0,0,1-3.588-2.509,14.477,14.477,0,0,0,5.821-.439.3.3,0,0,0,.182-.176.294.294,0,0,0-.019-.251,9.214,9.214,0,0,0-1.656-2.114,12.831,12.831,0,0,0,2.823-2.02.307.307,0,0,0,.088-.238.271.271,0,0,0-.132-.213c-2.81-1.857-7.759-2.133-9.835-1.054a1.535,1.535,0,0,0-.985,1.286,6.452,6.452,0,0,0,1.857,4.19,9.663,9.663,0,0,1-3.023-1.6.29.29,0,0,0-.358.458,10.542,10.542,0,0,0,4.165,1.976A20.435,20.435,0,0,0,339.2,33.9a9.563,9.563,0,0,1-4.052-.025c-3.657-.74-5.777-3.726-6.793-5.156-.42-.59-.6-.834-.8-.916a2.99,2.99,0,0,0-1.543.063c.251-.276.489-.546.558-.621.107-.113.132-.276.176-.6a3.386,3.386,0,0,1,1.211-2.5c.966-.652,2.126-.433,3.55.665a.29.29,0,0,0,.358-.458c-1.625-1.254-3.048-1.487-4.234-.69a3.945,3.945,0,0,0-1.461,2.9,1.973,1.973,0,0,1-.05.3c-.238.257-1.167,1.3-1.211,1.349a.292.292,0,0,0-.025.358.289.289,0,0,0,.339.113,4.935,4.935,0,0,1,2.1-.358,6.375,6.375,0,0,1,.552.721c1,1.4,3,4.215,6.436,5.212.2.5.533,1.725.013,2.333m1.267-6.166c-1.4-1.405-2.377-2.973-2.333-4.453.006-.295.232-.558.665-.784,1.825-.947,6.266-.721,8.926.828a11.953,11.953,0,0,1-2.622,1.769,4.911,4.911,0,0,0-5.03-.765.3.3,0,0,0-.151.194.29.29,0,0,0,.056.245,3.548,3.548,0,0,0,2.647,1.474,5.315,5.315,0,0,0,2.4-.47,8.394,8.394,0,0,1,1.518,1.819,14.06,14.06,0,0,1-6.078.144Zm2.2-2.082a2.906,2.906,0,0,1-1.97-.953,4.232,4.232,0,0,1,3.795.646,4.514,4.514,0,0,1-1.825.307Zm2.879,5.7a13.654,13.654,0,0,0,2.71-1.537,11.224,11.224,0,0,1,1.11-.709,1.209,1.209,0,0,1,.22-.094c.345-.107.47.063.514.119.383.521.182,2.2-.759,3.142-.257.257-1.28.188-2.967-.539-.27-.113-.546-.245-.828-.389Zm-4.66,2.5c-.32.019-.659.031-1.016.044a3.343,3.343,0,0,0-.025-2.151.091.091,0,0,1,.044.013c.326.069.64.113.941.151a1.9,1.9,0,0,1,.05,1.944Z" transform="translate(-121.866 -8.624)" fill="#95afb3"/>
  <path id="Path_5" data-name="Path 5" d="M168.631,33.727a13.8,13.8,0,0,0-1.1-4.642,16.988,16.988,0,0,0-4.924-6.348,21.957,21.957,0,0,0-3.312-2.246,18.714,18.714,0,0,1,4.547,2.277,37.048,37.048,0,0,1,5.858,4.943,29.892,29.892,0,0,1,2.616,3.011c.094.132.188.27.282.408a7.608,7.608,0,0,0,.7-2.371,16.079,16.079,0,0,0-.107-4.491,22.871,22.871,0,0,0-1.386-5.106A28.484,28.484,0,0,1,176.866,30.1q.273,1.185.452,2.39a15.132,15.132,0,0,0,1.43-3.042,19.978,19.978,0,0,0,.859-7.935,36.114,36.114,0,0,0-1.411-7.383,62.334,62.334,0,0,0-2.816-7.546,114.57,114.57,0,0,1,5.739,12.056,48.394,48.394,0,0,1,1.719,5.357l.289-.056a41.013,41.013,0,0,1-.025-9.365c.257-2.791.64-5.576.9-8.367.213,1.737.257,3.481.314,5.231.1,3.538.144,7.088.565,10.613a25.118,25.118,0,0,0,1.3,5.758,9.359,9.359,0,0,0,2.2,3.525,5.78,5.78,0,0,0,2.377,1.355c.075,0,.132-.082.2-.119a9.986,9.986,0,0,0,3.08-3.676,15.163,15.163,0,0,0,1.455-5.482,22.812,22.812,0,0,0-.47-6.461,44.892,44.892,0,0,1,2.151,7.464,20.292,20.292,0,0,1,.326,4.573c.031.056.157.044.22.069.094.031.082-.125.125-.182A61.978,61.978,0,0,0,199.8,21.91a19.1,19.1,0,0,1,1.85-4.8,12.272,12.272,0,0,1,1.7-2.283c.069-.069.132-.138.2-.207a18.23,18.23,0,0,0-1.706,5.752,64.884,64.884,0,0,0-.232,8.556v.79l.263.056c.872-1.944,1.543-3.983,2.515-5.884a14.629,14.629,0,0,1,1.7-2.647,22.392,22.392,0,0,0-1.581,9.44c.013.326.044.646.069.966a28.611,28.611,0,0,0,6.335-1.725,12.9,12.9,0,0,0,3.795-2.471,20.094,20.094,0,0,0,3.481-4.573,13.9,13.9,0,0,1-2.183,5.407,9.279,9.279,0,0,1-3.174,2.848c.038.088.075.182.113.27.314-.119.64-.22.96-.351a16.778,16.778,0,0,0,7.025-5.344,15.323,15.323,0,0,0,3.168-7.464l.038-.339a19.035,19.035,0,0,1-.6,8.192,11.647,11.647,0,0,1-2.352,4.391,9.849,9.849,0,0,1-1.022.96,9.755,9.755,0,0,0,2.415-.295,7.136,7.136,0,0,0,3.142-1.806,13.174,13.174,0,0,0,2.584-3.927c.307-.665.59-1.336.866-2.013a14.132,14.132,0,0,1-.972,4.987,9.793,9.793,0,0,1-2.164,3.255c.056.075.113.151.163.226a110.191,110.191,0,0,1,10.343-5.056,35.69,35.69,0,0,1,8.185-2.252c.056,0,.213-.063.125.031-1.135,1.625-2.816,2.741-4.127,4.209-.289.314-.546.652-.809.991a82.555,82.555,0,0,1,8.116-2.7,24.888,24.888,0,0,1,6.661-.853,1.169,1.169,0,0,1-.194.125,27.238,27.238,0,0,0-5.024,4.315l-.508.527c.05.075.094.151.144.226a64.794,64.794,0,0,1,22.123-3.45,91.283,91.283,0,0,1,15.681,1.524,107.126,107.126,0,0,1,15.3,4c.031-.094.063-.188.094-.289a106.786,106.786,0,0,0-17.368-4.353A86.947,86.947,0,0,0,266.9,27.781,63.419,63.419,0,0,0,250.385,30.7l-.734.245a29.1,29.1,0,0,1,4.472-4c.514-.358,1.06-.677,1.612-.985a21.858,21.858,0,0,0-2.867,0,34.983,34.983,0,0,0-8.888,2.045c-1.035.358-2.064.734-3.092,1.11,1.292-1.455,2.942-2.584,4.1-4.171.194-.263.364-.539.539-.815a34.809,34.809,0,0,0-8,1.963A84.994,84.994,0,0,0,227.359,30.9c-.194.1-.383.2-.577.307a11.048,11.048,0,0,0,2.308-4.679,16.365,16.365,0,0,0,.408-4.021c-.088-.019-.176-.031-.27-.05a32.113,32.113,0,0,1-2.183,4.685,8.524,8.524,0,0,1-2.835,2.973,7.14,7.14,0,0,1-2.967.947c-.088.006-.176.019-.263.025a10.866,10.866,0,0,0,2.6-4.19,18.983,18.983,0,0,0,1.066-6,18.253,18.253,0,0,0-.42-4.485c.013-.113-.132-.025-.194-.038-.119-.019-.113.075-.1.163A13.675,13.675,0,0,1,222.2,23.2a16.919,16.919,0,0,1-5.783,6.178,15.737,15.737,0,0,1-2.39,1.248,10.959,10.959,0,0,0,3.412-4.34,15.335,15.335,0,0,0,1.2-4.234c-.088-.031-.176-.056-.257-.088a20.933,20.933,0,0,1-3.757,5.143,12.92,12.92,0,0,1-3.462,2.358,22.391,22.391,0,0,1-4.83,1.518c-.5.107-1,.2-1.5.295a22.221,22.221,0,0,1,.721-7.659,22.515,22.515,0,0,1,1.173-3.243c-.075-.05-.151-.107-.232-.157a14.377,14.377,0,0,0-2.609,3.858c-.753,1.562-1.323,3.205-1.995,4.8A78.68,78.68,0,0,1,202.019,21a18.114,18.114,0,0,1,1.461-5.7c.213-.477.452-.941.7-1.392l-.213-.176a12.51,12.51,0,0,0-2.81,3.544,23.733,23.733,0,0,0-1.907,5.426c-.458,1.794-.878,3.607-1.493,5.357a26.609,26.609,0,0,0-1.029-6.837,67.354,67.354,0,0,0-2.22-6.567c.013-.132-.094-.05-.163-.031s-.182.025-.125.125a23.72,23.72,0,0,1,1.016,6.787,17.279,17.279,0,0,1-.941,5.9,10.5,10.5,0,0,1-2.6,4.083,9.019,9.019,0,0,1-1,.828,5.593,5.593,0,0,1-2.685-1.825,10.677,10.677,0,0,1-1.869-3.676,29.324,29.324,0,0,1-1.085-5.739c-.408-3.958-.358-7.947-.514-11.924a29.871,29.871,0,0,0-.414-4.228c-.031-.063,0-.213-.1-.176-.069.025-.213-.031-.22.056-.32,4.271-1.029,8.505-1.2,12.789a37.8,37.8,0,0,0,.082,4.842,68.308,68.308,0,0,0-4.918-11.8c-1.775-3.487-3.663-6.925-5.338-10.456-.031-.038-.05-.063-.094-.025-.063.044-.188.069-.213.119a3.227,3.227,0,0,1,.257.483,85.983,85.983,0,0,1,5.125,12.118,37.851,37.851,0,0,1,1.775,8.487,20.449,20.449,0,0,1-.615,7.169,15.6,15.6,0,0,1-.866,2.315c-.107.226-.226.458-.345.69A29.589,29.589,0,0,0,172.8,19.953c-.464-.671-.96-1.317-1.48-1.944-.082.05-.157.1-.238.157a20.375,20.375,0,0,1,1.405,4.065,19.608,19.608,0,0,1,.6,5.363A9.708,9.708,0,0,1,172.7,30c-.05.163-.113.345-.182.508a29.782,29.782,0,0,0-2.465-2.873,38.882,38.882,0,0,0-5.4-4.7,20.721,20.721,0,0,0-4.823-2.634,13.147,13.147,0,0,0-1.7-.483c-.094-.063-.082.107-.119.157-.069.1.019.132.1.163a20.8,20.8,0,0,1,6.661,5.081,14.969,14.969,0,0,1,3.017,5.47,13.289,13.289,0,0,1,.5,2.634" transform="translate(-59.881 -0.039)" fill="#95afb3"/>
  <path id="Path_6" data-name="Path 6" d="M168.449,33.656a13.613,13.613,0,0,0-1.085-4.6,16.965,16.965,0,0,0-4.892-6.31,22.83,22.83,0,0,0-3.293-2.239l.082-.194a18.737,18.737,0,0,1,4.573,2.289,36.5,36.5,0,0,1,5.877,4.961,30.511,30.511,0,0,1,2.622,3.023l.182.257a7.457,7.457,0,0,0,.615-2.177,15.952,15.952,0,0,0-.107-4.466,22.8,22.8,0,0,0-1.38-5.081l-.289-.715.47.608A28.591,28.591,0,0,1,176.9,29.986c.151.652.289,1.349.408,2.108a14.562,14.562,0,0,0,1.267-2.772,19.672,19.672,0,0,0,.853-7.9,35.949,35.949,0,0,0-1.405-7.358A60.523,60.523,0,0,0,175.2,6.534l.188-.094.176.332a112.941,112.941,0,0,1,5.57,11.729,48.256,48.256,0,0,1,1.7,5.269l.094-.019a40.663,40.663,0,0,1-.013-9.289c.125-1.405.295-2.829.452-4.2s.32-2.772.445-4.165l.088-.985.119.978c.2,1.65.251,3.337.307,4.968v.276c.025.5.038.991.05,1.493.082,2.992.163,6.09.527,9.114a25.2,25.2,0,0,0,1.292,5.733,9.032,9.032,0,0,0,2.177,3.481,5.645,5.645,0,0,0,2.308,1.323.262.262,0,0,0,.05-.038.61.61,0,0,1,.094-.063,9.829,9.829,0,0,0,3.03-3.625,14.874,14.874,0,0,0,1.443-5.444,22.947,22.947,0,0,0-.464-6.429l.2-.056a45.534,45.534,0,0,1,2.158,7.483,19.666,19.666,0,0,1,.326,4.529h.038a.113.113,0,0,1,.063.013v-.013a.309.309,0,0,1,.038-.107,39.642,39.642,0,0,0,1.5-5.137c.144-.6.295-1.2.452-1.8a19.278,19.278,0,0,1,1.863-4.83,12.612,12.612,0,0,1,1.712-2.3l.069-.069a1.433,1.433,0,0,1,.138-.138l.452-.452-.289.571a17.886,17.886,0,0,0-1.694,5.714,47.016,47.016,0,0,0-.245,6.7c.006.615.013,1.223.013,1.838v.7l.094.019c.339-.759.652-1.537.953-2.3.464-1.167.947-2.371,1.53-3.513a14.771,14.771,0,0,1,1.712-2.666l.433-.527-.257.634a22.367,22.367,0,0,0-1.574,9.4c.013.27.031.539.056.853a28.537,28.537,0,0,0,6.2-1.694,12.756,12.756,0,0,0,3.763-2.453,19.819,19.819,0,0,0,3.462-4.547l.307-.527-.113.6a13.8,13.8,0,0,1-2.2,5.444,9.463,9.463,0,0,1-3.124,2.835l.038.088c.107-.038.213-.075.326-.113.182-.063.358-.125.533-.194a16.559,16.559,0,0,0,6.981-5.313,15.168,15.168,0,0,0,3.149-7.414c.012-.075.019-.144.025-.22l.107-.953.119.834a19.228,19.228,0,0,1-.6,8.236,11.675,11.675,0,0,1-2.377,4.428,8.694,8.694,0,0,1-.809.778,8.7,8.7,0,0,0,2.095-.289,7.027,7.027,0,0,0,3.1-1.781,13.287,13.287,0,0,0,2.565-3.9c.27-.577.533-1.2.866-2.013l.22-.546-.019.59a14.1,14.1,0,0,1-.978,5.024,9.8,9.8,0,0,1-2.12,3.224l.056.075,1.116-.59a94.1,94.1,0,0,1,9.158-4.428,36.057,36.057,0,0,1,8.211-2.258.175.175,0,0,0,.063-.006c.063-.013.151-.031.2.05.031.05.013.107-.044.169a15.522,15.522,0,0,1-2.421,2.547,23.57,23.57,0,0,0-1.706,1.656c-.2.22-.4.458-.577.69l.263-.094a74.678,74.678,0,0,1,7.514-2.471,24.883,24.883,0,0,1,6.686-.853h.188l-.1.163a.515.515,0,0,1-.144.113.8.8,0,0,0-.075.044,27.454,27.454,0,0,0-5.005,4.3c-.113.119-.226.232-.339.351l-.113.119.056.082a64.783,64.783,0,0,1,22.079-3.431,91.6,91.6,0,0,1,15.7,1.524,107.43,107.43,0,0,1,15.217,3.964l.031-.088a106.92,106.92,0,0,0-17.249-4.315,86.452,86.452,0,0,0-18.027-1.079,63.587,63.587,0,0,0-16.49,2.917l-.734.245-.408.138.3-.314A29.962,29.962,0,0,1,254,26.756c.433-.3.891-.577,1.3-.815a20.356,20.356,0,0,0-2.49.019A35.281,35.281,0,0,0,243.949,28c-1.022.351-2.045.728-3.086,1.11l-.4.144.276-.314a23.005,23.005,0,0,1,1.769-1.731,16.715,16.715,0,0,0,2.327-2.427q.216-.3.414-.621a34.982,34.982,0,0,0-7.765,1.932,84.689,84.689,0,0,0-10.136,4.8l-1.079.571.364-.42a10.88,10.88,0,0,0,2.283-4.635,16.626,16.626,0,0,0,.408-3.914l-.094-.019v.013a31.711,31.711,0,0,1-2.158,4.61,8.578,8.578,0,0,1-2.866,3.011,7.311,7.311,0,0,1-3.011.966l-.22.019-.339.031.213-.207a10.806,10.806,0,0,0,2.572-4.152,19.137,19.137,0,0,0,1.06-5.971,18.275,18.275,0,0,0-.408-4.422.488.488,0,0,1-.1.013v.044a13.849,13.849,0,0,1-1.731,6.73,16.965,16.965,0,0,1-5.821,6.216,15.409,15.409,0,0,1-2.409,1.254l-.809.339.7-.521a10.9,10.9,0,0,0,3.381-4.3,15.16,15.16,0,0,0,1.179-4.121l-.094-.031a20.327,20.327,0,0,1-3.738,5.093,12.992,12.992,0,0,1-3.494,2.377,22.4,22.4,0,0,1-4.849,1.524c-.433.094-.891.182-1.5.295l-.113.019v-.119a21.857,21.857,0,0,1,.715-7.7,22.4,22.4,0,0,1,1.142-3.174l-.082-.056a14.294,14.294,0,0,0-2.528,3.77c-.483,1-.9,2.051-1.3,3.067-.226.571-.458,1.154-.7,1.731l-.2.477v-.521c0-.64-.013-1.28-.019-1.926a51.474,51.474,0,0,1,.144-5.971,18.458,18.458,0,0,1,1.468-5.727c.194-.433.414-.866.665-1.323l-.075-.063a12.341,12.341,0,0,0-2.722,3.456,23.271,23.271,0,0,0-1.894,5.4c-.069.282-.144.565-.213.853-.376,1.493-.759,3.036-1.286,4.516l-.207.577v-.615a25.784,25.784,0,0,0-1.029-6.806,68.731,68.731,0,0,0-2.208-6.536.16.16,0,0,1-.044.013l-.044.013a24.051,24.051,0,0,1,1.016,6.793,17.473,17.473,0,0,1-.947,5.934,10.531,10.531,0,0,1-2.622,4.121,9.205,9.205,0,0,1-1.016.834l-.044.031-.05-.013a5.785,5.785,0,0,1-2.741-1.857,10.8,10.8,0,0,1-1.888-3.707,29.337,29.337,0,0,1-1.091-5.764c-.282-2.735-.345-5.52-.408-8.217-.031-1.217-.056-2.478-.107-3.713a30.011,30.011,0,0,0-.408-4.2.5.5,0,0,1-.019-.094h-.1c-.138,1.806-.345,3.632-.546,5.4-.276,2.4-.558,4.886-.659,7.345a37.9,37.9,0,0,0,.082,4.83l-.207.038a68.322,68.322,0,0,0-4.911-11.78c-.627-1.236-1.28-2.484-1.913-3.688-1.148-2.2-2.333-4.46-3.412-6.73-.025.013-.044.019-.069.031a.031.031,0,0,0-.019.006,2.442,2.442,0,0,1,.113.22,1.531,1.531,0,0,0,.088.176,86.5,86.5,0,0,1,5.131,12.143,38.144,38.144,0,0,1,1.781,8.512,20.349,20.349,0,0,1-.621,7.207,15.6,15.6,0,0,1-.872,2.327c-.119.251-.238.483-.351.69l-.144.263-.05-.3A29.456,29.456,0,0,0,172.626,19.9c-.439-.634-.916-1.261-1.418-1.863l-.082.05a20.841,20.841,0,0,1,1.374,4,19.735,19.735,0,0,1,.6,5.394,10.032,10.032,0,0,1-.389,2.427c-.05.169-.119.351-.188.521l-.069.176-.113-.151a29,29,0,0,0-2.459-2.86,39.222,39.222,0,0,0-5.382-4.685,20.469,20.469,0,0,0-4.8-2.622,12.755,12.755,0,0,0-1.656-.47.277.277,0,0,1-.031.094c.013,0,.025.013.038.013a20.758,20.758,0,0,1,6.711,5.118,15.235,15.235,0,0,1,3.036,5.507,13.371,13.371,0,0,1,.5,2.653l-.213.019a13.288,13.288,0,0,0-.489-2.609,14.978,14.978,0,0,0-3-5.432,20.459,20.459,0,0,0-6.63-5.056c-.075-.031-.157-.063-.182-.151a.192.192,0,0,1,.038-.169.11.11,0,0,1,.006-.038.213.213,0,0,1,.107-.169.132.132,0,0,1,.125.013,12.472,12.472,0,0,1,1.7.483,20.408,20.408,0,0,1,4.849,2.647,39.289,39.289,0,0,1,5.413,4.711,30.389,30.389,0,0,1,2.365,2.728c.038-.107.082-.22.113-.326a9.565,9.565,0,0,0,.383-2.371,19.524,19.524,0,0,0-.59-5.332,20.835,20.835,0,0,0-1.4-4.046l-.038-.082.4-.257.063.069c.527.627,1.029,1.286,1.487,1.951a29.723,29.723,0,0,1,4.617,11.353c.069-.132.132-.27.207-.414a14.774,14.774,0,0,0,.859-2.3,20.236,20.236,0,0,0,.608-7.132,37.614,37.614,0,0,0-1.769-8.461A86.257,86.257,0,0,0,172.206.732q-.047-.085-.094-.188a1.647,1.647,0,0,0-.151-.276l-.044-.056.031-.063a.3.3,0,0,1,.176-.119c.025-.013.056-.019.075-.031a.145.145,0,0,1,.22.031l.025.038c1.085,2.283,2.277,4.56,3.425,6.762.633,1.211,1.286,2.459,1.913,3.694a71.7,71.7,0,0,1,4.654,10.92,38.705,38.705,0,0,1-.013-3.92c.107-2.465.389-4.955.659-7.358.2-1.781.414-3.619.546-5.438.006-.157.176-.151.232-.151h.056a.15.15,0,0,1,.144.013.212.212,0,0,1,.082.176c0,.013,0,.038.006.044a29.47,29.47,0,0,1,.42,4.265c.05,1.242.082,2.5.107,3.72.063,2.691.125,5.476.408,8.2a29.011,29.011,0,0,0,1.079,5.72,10.672,10.672,0,0,0,1.85,3.638,5.549,5.549,0,0,0,2.584,1.775,9.447,9.447,0,0,0,.953-.784,10.4,10.4,0,0,0,2.572-4.039,17.224,17.224,0,0,0,.935-5.865,23.925,23.925,0,0,0-1.01-6.743.159.159,0,0,1-.013-.138.229.229,0,0,1,.157-.113.089.089,0,0,0,.038-.013.19.19,0,0,0,.056-.019.179.179,0,0,1,.2,0,.167.167,0,0,1,.056.138,67.391,67.391,0,0,1,2.214,6.555,27.092,27.092,0,0,1,1.022,6.254c.427-1.292.759-2.628,1.085-3.927.069-.282.144-.565.213-.853a23.917,23.917,0,0,1,1.913-5.451,12.448,12.448,0,0,1,2.835-3.575l.069-.056.351.289-.044.075c-.27.477-.5.935-.7,1.386a18.276,18.276,0,0,0-1.455,5.664,52.344,52.344,0,0,0-.144,5.946c.006.47.013.935.019,1.405.169-.414.332-.834.5-1.242.4-1.022.815-2.076,1.3-3.08a14.777,14.777,0,0,1,2.628-3.889l.063-.063.376.257-.038.082a21.973,21.973,0,0,0-1.894,10.732c.552-.1.978-.188,1.38-.276a21.994,21.994,0,0,0,4.8-1.512,12.9,12.9,0,0,0,3.437-2.333,20.47,20.47,0,0,0,3.738-5.118l.044-.075.427.138-.013.088a15.471,15.471,0,0,1-1.2,4.265,11.332,11.332,0,0,1-2.81,3.87,15.407,15.407,0,0,0,1.631-.909,16.8,16.8,0,0,0,5.745-6.141,13.641,13.641,0,0,0,1.712-6.611.264.264,0,0,1,.056-.232.177.177,0,0,1,.169-.038.11.11,0,0,0,.038-.006.217.217,0,0,1,.194.019.142.142,0,0,1,.05.119,18.575,18.575,0,0,1,.42,4.5,19.354,19.354,0,0,1-1.073,6.034,11.14,11.14,0,0,1-2.415,4.021,7.021,7.021,0,0,0,2.892-.935,8.292,8.292,0,0,0,2.8-2.942,30.958,30.958,0,0,0,2.139-4.579l.069-.169.439.082v.088a16.754,16.754,0,0,1-.408,4.046,11.2,11.2,0,0,1-2,4.315l.119-.063a85.364,85.364,0,0,1,10.18-4.817,34.627,34.627,0,0,1,8.029-1.97l.22-.025-.113.188c-.176.282-.351.558-.539.822a16.848,16.848,0,0,1-2.358,2.459c-.489.445-1,.909-1.461,1.4.9-.332,1.794-.652,2.685-.96a35.012,35.012,0,0,1,8.913-2.051,22,22,0,0,1,2.879,0l.358.019-.314.176c-.489.276-1.06.6-1.6.978a28.052,28.052,0,0,0-4.159,3.676c.107-.038.213-.069.326-.107a63.708,63.708,0,0,1,16.54-2.929,87.315,87.315,0,0,1,18.071,1.085A106.61,106.61,0,0,1,302.27,33l.1.031-.163.483-.1-.031A107.371,107.371,0,0,0,286.821,29.5a91.155,91.155,0,0,0-15.662-1.518,64.639,64.639,0,0,0-22.085,3.444l-.082.025-.232-.364.226-.238c.113-.119.226-.238.339-.351a28,28,0,0,1,4.943-4.271,25.355,25.355,0,0,0-6.291.853,77.023,77.023,0,0,0-7.5,2.465l-.96.351.332-.42c.226-.289.464-.59.715-.866a22.65,22.65,0,0,1,1.719-1.668,16.191,16.191,0,0,0,2.3-2.384,36.273,36.273,0,0,0-8.085,2.239,95.878,95.878,0,0,0-9.139,4.416l-1.28.677-.27-.37.063-.063a9.509,9.509,0,0,0,2.139-3.218,13.493,13.493,0,0,0,.935-4.347c-.232.552-.433,1.016-.64,1.455a13.4,13.4,0,0,1-2.6,3.958,7.237,7.237,0,0,1-3.193,1.838,9.349,9.349,0,0,1-2.44.3h-.295l.226-.188a9.89,9.89,0,0,0,1.016-.947,11.585,11.585,0,0,0,2.333-4.353,18.867,18.867,0,0,0,.69-7.3,15.524,15.524,0,0,1-3.117,7.006,16.819,16.819,0,0,1-7.069,5.375c-.176.075-.364.138-.546.2-.138.05-.276.094-.414.151l-.094.038-.194-.452.088-.044a9.122,9.122,0,0,0,3.136-2.816,13.239,13.239,0,0,0,2.039-4.754,19.4,19.4,0,0,1-3.18,4.058,12.964,12.964,0,0,1-3.826,2.49,29.174,29.174,0,0,1-6.36,1.731l-.113.019-.013-.113c-.031-.364-.056-.665-.069-.972a22.666,22.666,0,0,1,1.33-8.819,15.641,15.641,0,0,0-1.254,2.064c-.577,1.135-1.06,2.333-1.524,3.494-.314.784-.64,1.6-.991,2.384l-.038.082-.433-.094v-.872c0-.615-.006-1.223-.013-1.838a47.489,47.489,0,0,1,.245-6.73,18.623,18.623,0,0,1,1.424-5.175,11.715,11.715,0,0,0-1.424,1.976,18.994,18.994,0,0,0-1.838,4.78c-.157.6-.3,1.2-.452,1.8a41.568,41.568,0,0,1-1.512,5.175l-.019.025a.256.256,0,0,1-.013.044.211.211,0,0,1-.1.163.142.142,0,0,1-.125,0,.226.226,0,0,0-.069-.013.239.239,0,0,1-.207-.1l-.013-.025v-.031a19.475,19.475,0,0,0-.32-4.547,41.209,41.209,0,0,0-1.712-6.228,22.166,22.166,0,0,1,.238,5.219,15.16,15.16,0,0,1-1.468,5.526,10.089,10.089,0,0,1-3.111,3.713.327.327,0,0,0-.069.05.312.312,0,0,1-.188.088h-.025a5.745,5.745,0,0,1-2.421-1.38,9.281,9.281,0,0,1-2.227-3.563,25.807,25.807,0,0,1-1.3-5.783c-.364-3.03-.445-6.134-.527-9.133-.013-.5-.025-.991-.038-1.493V11.05c-.05-1.286-.088-2.6-.2-3.9-.107,1.047-.226,2.1-.345,3.124-.157,1.374-.32,2.8-.452,4.2a39.949,39.949,0,0,0,.025,9.34l.013.1-.483.094-.025-.094a47.333,47.333,0,0,0-1.719-5.344A96.548,96.548,0,0,0,176.4,8.836a53.929,53.929,0,0,1,1.806,5.156,36.02,36.02,0,0,1,1.411,7.4,20.075,20.075,0,0,1-.866,7.978,15.338,15.338,0,0,1-1.436,3.061l-.151.251-.044-.289c-.132-.872-.282-1.65-.452-2.384a28.671,28.671,0,0,0-4.585-10.28A23.068,23.068,0,0,1,173.2,24.14a16.113,16.113,0,0,1,.107,4.522,7.713,7.713,0,0,1-.709,2.409l-.082.163-.1-.151c-.094-.138-.182-.27-.282-.4a30.017,30.017,0,0,0-2.6-3,36.035,36.035,0,0,0-5.84-4.93,20.517,20.517,0,0,0-3.444-1.869,22.591,22.591,0,0,1,2.327,1.668,17.2,17.2,0,0,1,4.949,6.392,13.691,13.691,0,0,1,1.1,4.673l-.213.013ZM183.866,4.765ZM172.35.1l-.069.075h.006V.174l.038-.019L172.35.1Z" transform="translate(-59.806 0.039)" fill="#95afb3"/>
  <path id="Path_7" data-name="Path 7" d="M79.462,51.692c-4.309-.477-7.734-1.411-8.392-3.124l.489-.188c1.524,3.952,21.677,3.393,29.311,2.841,1.116-.138,27.8-3.425,35.439.226l-.226.477c-7.5-3.582-34.887-.213-35.163-.176-.765.056-12.877.9-21.464-.056Z" transform="translate(-26.697 -18.121)" fill="#95afb3"/>
  <path id="Path_8" data-name="Path 8" d="M0,65.05H12.087c8.405,0,12.369,3.72,12.369,11.428v1.38c0,5.3-1.944,8.468-6.185,9.917v.138c4.861,1.311,7.088,4.823,7.088,10.676V101.2c0,8.06-4.027,12.049-12.507,12.049H0V65.05ZM11.184,85.843c5.212,0,7.709-2.133,7.709-7.094V77.024c0-4.955-2.013-7.025-6.95-7.025H5.551V85.837h5.626ZM12.852,108.3c4.861,0,6.881-2.064,6.881-7.094V98.45c0-5.576-2.3-7.715-8.267-7.715h-5.9V108.3h7.295Z" transform="translate(0 -24.469)" fill="#23373f"/>
  <path id="Path_9" data-name="Path 9" d="M49.29,109.761V97.642C49.29,90,53.392,85.8,60.825,85.8S72.291,90,72.291,97.642v12.118c0,7.646-4.1,11.911-11.466,11.911S49.29,117.4,49.29,109.761Zm17.644.483V97.159c0-4.2-2.013-6.68-6.116-6.68S54.7,92.957,54.7,97.159v13.084c0,4.2,1.944,6.749,6.116,6.749S66.934,114.446,66.934,110.243Z" transform="translate(-18.373 -32.233)" fill="#23373f"/>
  <path id="Path_10" data-name="Path 10" d="M103.568,85.52v21.345c0,3.306,1.11,4.547,4.027,4.547a9.189,9.189,0,0,0,3.406-.621v4.616a8.974,8.974,0,0,1-4.24.828c-5.833,0-8.612-2.892-8.612-8.813v-21.9h-5V81.048h5.143l.558-9.848h4.723v9.848h7.433v4.478h-7.433Z" transform="translate(-34.943 -26.773)" fill="#23373f"/>
  <path id="Path_11" data-name="Path 11" d="M152.5,97.642V104.6H134.789v5.645c0,4.479,2.151,6.818,6.185,6.818s6.323-2.409,6.323-6.68V109.9h5.212v.276c-.138,7.3-4.24,11.5-11.6,11.5S129.37,117.4,129.37,109.761V97.642C129.37,90,133.4,85.8,140.9,85.8s11.6,4.2,11.6,11.842Zm-5.281,2.685V97.09c0-4.478-2.151-6.68-6.254-6.68s-6.185,2.271-6.185,6.68v3.237Z" transform="translate(-48.536 -32.233)" fill="#23373f"/>
  <path id="Path_12" data-name="Path 12" d="M192.686,86.214v5.231a6.931,6.931,0,0,0-2.434-.345c-5.281,0-7.853,3.513-7.853,10.745v19.143H176.98V86.49h4.654l.138,6.059c1.317-4.547,4.1-6.749,8.336-6.749a6.114,6.114,0,0,1,2.572.414Z" transform="translate(-66.387 -32.231)" fill="#23373f"/>
  <path id="Path_13" data-name="Path 13" d="M233.394,96.41v14.533c0,7.163-3.268,10.745-9.1,10.745a9.46,9.46,0,0,1-8.543-4.679v14.665H210.33V86.5h4.654l.069,5.3a9.493,9.493,0,0,1,9.239-5.99c5.833,0,9.1,3.513,9.1,10.607Zm-5.419.684c0-4.34-1.668-6.611-5.419-6.611-4.171,0-6.806,3.03-6.806,8.606v9.3c0,5.507,2.641,8.606,6.806,8.606,3.751,0,5.419-2.34,5.419-6.68V97.088Z" transform="translate(-78.91 -32.374)" fill="#23373f"/>
  <path id="Path_14" data-name="Path 14" d="M257.06,109.761V97.642c0-7.646,4.1-11.842,11.535-11.842s11.466,4.2,11.466,11.842v12.118c0,7.646-4.1,11.911-11.466,11.911S257.06,117.4,257.06,109.761Zm17.651.483V97.159c0-4.2-2.013-6.68-6.116-6.68s-6.116,2.478-6.116,6.68v13.084c0,4.2,1.944,6.749,6.116,6.749S274.711,114.446,274.711,110.243Z" transform="translate(-96.442 -32.233)" fill="#23373f"/>
  <path id="Path_15" data-name="Path 15" d="M304.69,65.05h5.419v48.2H304.69V65.05Z" transform="translate(-114.265 -24.469)" fill="#23373f"/>
  <path id="Path_16" data-name="Path 16" d="M343.519,113.25a19.144,19.144,0,0,1-.627-5.369,9.367,9.367,0,0,1-9.17,6.059c-5.909,0-9.1-3.582-9.1-10.745V88.662c0-7.094,3.193-10.607,9.1-10.607a9.375,9.375,0,0,1,8.543,4.754V65.04h5.419v38.7c0,4.409.207,7.577.765,9.5h-4.93Zm-1.248-12.6v-9.3c0-5.576-2.71-8.606-6.881-8.606-3.82,0-5.35,2.271-5.35,6.611V102.58c0,4.34,1.53,6.68,5.35,6.68,4.171,0,6.881-3.1,6.881-8.606Z" transform="translate(-121.791 -24.468)" fill="#23373f"/>
  <path id="Path_17" data-name="Path 17" d="M395.6,97.642V104.6h-17.72v5.645c0,4.479,2.151,6.818,6.185,6.818s6.323-2.409,6.323-6.68V109.9H395.6v.276c-.138,7.3-4.24,11.5-11.6,11.5S372.46,117.4,372.46,109.761V97.642c0-7.646,4.027-11.842,11.535-11.842s11.6,4.2,11.6,11.842Zm-5.275,2.685V97.09c0-4.478-2.151-6.68-6.254-6.68s-6.185,2.271-6.185,6.68v3.237Z" transform="translate(-139.831 -32.233)" fill="#23373f"/>
  <path id="Path_18" data-name="Path 18" d="M435.8,86.214v5.231a6.931,6.931,0,0,0-2.434-.345c-5.281,0-7.853,3.513-7.853,10.745v19.143H420.09V86.49h4.654l.138,6.059c1.317-4.547,4.1-6.749,8.336-6.749a6.114,6.114,0,0,1,2.572.414Z" transform="translate(-157.586 -32.231)" fill="#23373f"/>
  <path id="Path_19" data-name="Path 19" d="M116.86,65.29h1.8l1.1,6.241L120.8,65.29h1.869l1.054,6.241,1.085-6.241h1.618L124.92,73.7h-2.2L121.7,68.018l-1,5.677h-2.321L116.86,65.29Z" transform="translate(-43.829 -24.469)" fill="#23373f"/>
  <path id="Path_20" data-name="Path 20" d="M133.6,70.861V67.95a2.914,2.914,0,0,1,5.827,0v2.91a2.914,2.914,0,0,1-5.827,0Zm3.989.151V67.8c0-.709-.332-1.173-1.085-1.173s-1.066.464-1.066,1.173v3.211c0,.709.332,1.173,1.066,1.173A1.026,1.026,0,0,0,137.589,71.011Z" transform="translate(-50.103 -24.376)" fill="#23373f"/>
  <path id="Path_21" data-name="Path 21" d="M150.947,67.646V73.6h-1.819v-5.7c0-.891-.282-1.292-.966-1.292s-1.154.477-1.154,1.587V73.6H145.17V65.193h1.6l.019,1.242a2.058,2.058,0,0,1,2.038-1.405c1.367,0,2.12.847,2.12,2.616Z" transform="translate(-54.442 -24.372)" fill="#23373f"/>
  <path id="Path_22" data-name="Path 22" d="M162.418,67.944V69.8H158.4v1.242c0,.8.383,1.173,1.135,1.173s1.135-.383,1.135-1.192v-.163h1.75v.082a2.627,2.627,0,0,1-2.923,2.829,2.659,2.659,0,0,1-2.935-2.91V67.95a2.929,2.929,0,0,1,5.858,0Zm-1.788.483V67.75c0-.8-.4-1.173-1.117-1.173A1.021,1.021,0,0,0,158.4,67.75v.677h2.239Z" transform="translate(-58.714 -24.376)" fill="#23373f"/>
  <path id="Path_23" data-name="Path 23" d="M173.907,67.646V73.6h-1.819v-5.7c0-.891-.282-1.292-.966-1.292s-1.154.477-1.154,1.587V73.6H168.13V65.193h1.6l.019,1.242a2.058,2.058,0,0,1,2.039-1.405c1.367,0,2.12.847,2.12,2.616Z" transform="translate(-63.053 -24.372)" fill="#23373f"/>
  <path id="Path_24" data-name="Path 24" d="M184.39,63.415h1.838v8.4H184.39Zm.019-3.155h1.838v2.02h-1.838Z" transform="translate(-69.145 -22.586)" fill="#23373f"/>
  <path id="Path_25" data-name="Path 25" d="M195.7,67.646V73.6h-1.819v-5.7c0-.891-.282-1.292-.966-1.292-.715,0-1.154.477-1.154,1.587V73.6H189.92V65.193h1.6l.019,1.242a2.058,2.058,0,0,1,2.039-1.405c1.367,0,2.12.847,2.12,2.616Z" transform="translate(-71.224 -24.372)" fill="#23373f"/>
  <path id="Path_26" data-name="Path 26" d="M210.322,71.819a3.3,3.3,0,0,1-.169-1.223,2.079,2.079,0,0,1-2.051,1.392c-1.367,0-2.151-.841-2.151-2.628V65.866c0-1.769.784-2.616,2.151-2.616a2.082,2.082,0,0,1,1.838.96V60.24h1.838v9.133a9.6,9.6,0,0,0,.232,2.446h-1.687Zm-.389-3.017V66.418c0-1.091-.452-1.587-1.167-1.587s-.985.433-.985,1.254v3.042c0,.809.27,1.254.985,1.254s1.167-.5,1.167-1.587Z" transform="translate(-77.236 -22.579)" fill="#23373f"/>
  <path id="Path_27" data-name="Path 27" d="M223.408,67.944V69.8h-4.021v1.242c0,.8.383,1.173,1.135,1.173s1.135-.383,1.135-1.192v-.163h1.75v.082a2.627,2.627,0,0,1-2.923,2.829,2.659,2.659,0,0,1-2.935-2.91V67.95a2.929,2.929,0,0,1,5.858,0Zm-1.788.483V67.75c0-.8-.4-1.173-1.116-1.173a1.021,1.021,0,0,0-1.117,1.173v.677h2.239Z" transform="translate(-81.586 -24.376)" fill="#23373f"/>
  <path id="Path_28" data-name="Path 28" d="M239.447,67.646V73.6h-1.819v-5.7c0-.891-.282-1.292-.966-1.292-.715,0-1.154.477-1.154,1.587V73.6H233.67V65.193h1.6l.019,1.242a2.058,2.058,0,0,1,2.039-1.405C238.694,65.03,239.447,65.877,239.447,67.646Z" transform="translate(-87.632 -24.372)" fill="#23373f"/>
  <path id="Path_29" data-name="Path 29" d="M245.38,63.415h1.838v8.4H245.38Zm.019-3.155h1.838v2.02H245.4Z" transform="translate(-92.015 -22.586)" fill="#23373f"/>
  <path id="Path_30" data-name="Path 30" d="M256.448,67.944V69.8h-4.021v1.242c0,.8.383,1.173,1.135,1.173s1.135-.383,1.135-1.192v-.163h1.75v.082a2.627,2.627,0,0,1-2.923,2.829,2.659,2.659,0,0,1-2.935-2.91V67.95a2.929,2.929,0,0,1,5.858,0Zm-1.781.483V67.75c0-.8-.4-1.173-1.116-1.173a1.021,1.021,0,0,0-1.116,1.173v.677h2.239Z" transform="translate(-93.977 -24.376)" fill="#23373f"/>
  <path id="Path_31" data-name="Path 31" d="M267.837,65.29V73.7H266.25l-.031-1.223a2.056,2.056,0,0,1-2.02,1.392c-1.367,0-2.139-.841-2.139-2.628V65.3H263.9v5.7c0,.878.27,1.292.953,1.292.715,0,1.167-.483,1.167-1.587V65.3h1.819Z" transform="translate(-98.279 -24.469)" fill="#23373f"/>
  <path id="Path_32" data-name="Path 32" d="M273.08,65.29h1.8l1.1,6.241,1.035-6.241h1.869l1.054,6.241,1.085-6.241h1.618L281.14,73.7h-2.2l-1.016-5.677-1,5.677H274.6L273.08,65.29Z" transform="translate(-102.42 -24.469)" fill="#23373f"/>
  <path id="Path_33" data-name="Path 33" d="M295.678,67.944V69.8h-4.021v1.242c0,.8.383,1.173,1.135,1.173s1.135-.383,1.135-1.192v-.163h1.75v.082a2.627,2.627,0,0,1-2.923,2.829,2.659,2.659,0,0,1-2.935-2.91V67.95a2.929,2.929,0,0,1,5.858,0Zm-1.788.483V67.75c0-.8-.4-1.173-1.116-1.173a1.021,1.021,0,0,0-1.117,1.173v.677H293.9Z" transform="translate(-108.689 -24.376)" fill="#23373f"/>
  <path id="Path_34" data-name="Path 34" d="M236.546,156.553a.525.525,0,0,0-.483-.194c-.2.019-.383.044-.552.075a6.527,6.527,0,0,0-1.129.408c-.452.2-.916.427-1.4.677s-.953.508-1.4.759-.834.464-1.129.615c-.558.3-1.1.615-1.637.928s-1.06.652-1.574,1.01a8.85,8.85,0,0,0-.74.533,6,6,0,0,1-.74.514.213.213,0,0,1-.314-.056.265.265,0,0,1,.025-.364l.608-.4q.386-.263,1.167-.772c.521-.339,1.1-.7,1.756-1.091s1.336-.784,2.064-1.185,1.418-.765,2.082-1.1a16.512,16.512,0,0,1,1.813-.784,3.621,3.621,0,0,1,1.261-.27,1.176,1.176,0,0,1,.539.182.674.674,0,0,1,.307.483,2.189,2.189,0,0,1-.188.909,13.906,13.906,0,0,1-.608,1.418c-.263.533-.552,1.085-.872,1.668s-.633,1.142-.941,1.675-.59,1.016-.853,1.449-.452.759-.577.972c1.3-.2,2.6-.376,3.883-.521s2.59-.263,3.914-.358c.332-.665.671-1.323,1.022-1.963s.715-1.286,1.085-1.926q.329-.574.772-1.374t.922-1.618c.32-.546.64-1.073.96-1.568a13.336,13.336,0,0,1,.872-1.223.6.6,0,0,1,.151-.119.192.192,0,0,1,.2,0,.246.246,0,0,1,.1.345,12.7,12.7,0,0,1-.966,1.625c-.376.546-.728,1.079-1.054,1.606-.634,1.022-1.223,2.057-1.775,3.092s-1.123,2.07-1.712,3.111a2.483,2.483,0,0,1,.778.044c.132.05.163.107.1.169a.978.978,0,0,1-.408.188,3.493,3.493,0,0,1-.74.107c-.075.157-.213.445-.42.859s-.439.9-.7,1.443-.546,1.117-.834,1.719-.565,1.16-.815,1.675-.477.96-.665,1.336a5.67,5.67,0,0,1-.383.69c-.107.144-.22.182-.351.119s-.157-.182-.082-.351c.125-.282.289-.633.5-1.047s.427-.866.665-1.349.489-.972.746-1.474.5-.985.715-1.443.427-.878.608-1.254.326-.677.427-.9q-1.957.094-3.927.345c-1.311.169-2.6.364-3.889.6-.038.056-.075.113-.107.163a1.261,1.261,0,0,0-.088.157c-.307.6-.621,1.185-.941,1.763s-.627,1.173-.916,1.763a6.088,6.088,0,0,0-.389.859,4.553,4.553,0,0,1-.408.84.242.242,0,0,1-.427-.226,1.038,1.038,0,0,1,.113-.314,3.041,3.041,0,0,0,.151-.32,23.118,23.118,0,0,1,1.142-2.346c.427-.759.84-1.524,1.248-2.289-.608.113-1.211.232-1.813.364s-1.2.245-1.813.326a.225.225,0,0,1-.3-.151.183.183,0,0,1,.013-.188.4.4,0,0,1,.157-.132,8.927,8.927,0,0,1,2.013-.47c.728-.088,1.411-.194,2.045-.307.132-.213.32-.539.583-.972s.546-.922.859-1.461.634-1.1.966-1.681.621-1.142.878-1.668.47-1,.633-1.418a2.458,2.458,0,0,0,.226-.935Z" transform="translate(-84.555 -57.761)" fill="#23373f"/>
  <path id="Path_35" data-name="Path 35" d="M258.581,170.611a2.08,2.08,0,0,0-.113.847.453.453,0,0,0,.251.389.91.91,0,0,0,.533.038,3.473,3.473,0,0,0,.74-.226,10.1,10.1,0,0,0,.96-.427c.339-.176.659-.351.96-.521s.552-.339.772-.5a2.343,2.343,0,0,0,.42-.37.2.2,0,0,1,.176-.1.309.309,0,0,1,.169.063.254.254,0,0,1,.094.163.27.27,0,0,1-.063.207,3.1,3.1,0,0,1-.47.427,7.971,7.971,0,0,1-.778.514c-.295.176-.621.345-.966.514s-.684.314-1.016.445a7.443,7.443,0,0,1-.928.295,1.831,1.831,0,0,1-.709.056.574.574,0,0,1-.489-.358,1.7,1.7,0,0,1-.119-.709,3.745,3.745,0,0,1,.107-.784,4.776,4.776,0,0,1,.188-.621l-1.637,1.549A6.381,6.381,0,0,1,255,172.762c-.389.157-.64.138-.746-.056a1.348,1.348,0,0,1,.006-.941,5.981,5.981,0,0,1,.59-1.405,9.612,9.612,0,0,1,1.01-1.455,4.361,4.361,0,0,1,1.255-1.066,3.3,3.3,0,0,1,.615-.245,2.807,2.807,0,0,1,.728-.125,2.432,2.432,0,0,1,.715.069,1.059,1.059,0,0,1,.558.345.257.257,0,0,1,0,.364.263.263,0,0,1-.376.05,1.814,1.814,0,0,0-1.2-.314A2.382,2.382,0,0,0,257,168.5a5.1,5.1,0,0,0-.866.859,7.735,7.735,0,0,0-.652.972c-.182.314-.351.627-.508.947a2.021,2.021,0,0,0-.245.728c0,.163.1.213.314.151a4.183,4.183,0,0,0,1.142-.822c.282-.251.571-.508.859-.79s.565-.546.809-.8.458-.5.633-.7a4.835,4.835,0,0,0,.364-.464.26.26,0,0,1,.163-.132.274.274,0,0,1,.188.013.269.269,0,0,1,.132.132.261.261,0,0,1,.013.194c-.1.282-.226.577-.376.9a6.7,6.7,0,0,0-.37.96Z" transform="translate(-95.329 -62.812)" fill="#23373f"/>
  <path id="Path_36" data-name="Path 36" d="M267.889,171.406c.232-.138.6-.345,1.11-.634s1.047-.583,1.606-.9,1.1-.6,1.618-.866.9-.464,1.142-.583a.221.221,0,0,1,.188-.006.283.283,0,0,1,.132.125.248.248,0,0,1,.019.188.313.313,0,0,1-.125.163c-.3.169-.734.4-1.317.7s-1.185.615-1.825.947-1.254.677-1.857,1.022a9.251,9.251,0,0,0-1.374.935c-.232.345-.565.778-.985,1.311s-.872,1.06-1.355,1.587-.972,1.016-1.468,1.461a5.81,5.81,0,0,1-1.311.941c-.082.031-.182.069-.307.119a.461.461,0,0,1-.289.038c-.2-.075-.3-.188-.3-.351a1.058,1.058,0,0,1,.144-.5,3.3,3.3,0,0,1,.339-.514,4.753,4.753,0,0,1,.314-.358,21.27,21.27,0,0,1,2.321-2.183q1.251-1.016,2.54-1.907c.075-.144.213-.364.408-.665s.383-.615.558-.947.332-.646.458-.941a.908.908,0,0,0,.094-.665.508.508,0,0,0-.351.1.321.321,0,0,0-.176.05c-.05.031-.1.063-.151.088l-1.311.521a.251.251,0,0,1-.314-.044.214.214,0,0,1-.038-.307h.063a.957.957,0,0,1-.4-.815,2.343,2.343,0,0,1,.282-1.041,5.107,5.107,0,0,1,.734-1.073,7.315,7.315,0,0,1,.947-.928,4.655,4.655,0,0,1,.935-.6.822.822,0,0,1,.677-.094.405.405,0,0,1,.257.339,1.116,1.116,0,0,1-.069.483,2.517,2.517,0,0,1-.238.489c-.1.157-.169.276-.226.364a4.565,4.565,0,0,1-.383.514c-.138.157-.276.326-.4.5l-1.085,1.38c.138-.063.32-.151.565-.263a1.629,1.629,0,0,1,.565-.182.593.593,0,0,1,.552.119.637.637,0,0,1,.138.483,2.452,2.452,0,0,1-.157.684,7.679,7.679,0,0,1-.307.728,7.08,7.08,0,0,1-.339.627c-.113.182-.188.314-.245.383Zm-6.166,6.015a6.463,6.463,0,0,0,1.1-.746c.383-.314.759-.659,1.129-1.029s.721-.753,1.054-1.142.627-.74.891-1.06c-.245.194-.571.458-1,.8s-.853.709-1.286,1.1-.828.765-1.185,1.135a3.666,3.666,0,0,0-.709.935Zm7.332-12.206a2.746,2.746,0,0,0-.552.307,7.334,7.334,0,0,0-.728.571,9.416,9.416,0,0,0-.746.753,5.657,5.657,0,0,0-.6.8,1.9,1.9,0,0,0-.276.715.566.566,0,0,0,.213.552c.144-.176.351-.42.615-.746s.533-.659.809-1.016.527-.69.759-1.01a3.385,3.385,0,0,0,.433-.759.136.136,0,0,0,.038-.088.121.121,0,0,1,.038-.082Zm0,0s.019-.025.006-.031-.019,0-.031.013l.025.019Z" transform="translate(-97.967 -61.795)" fill="#23373f"/>
  <path id="Path_37" data-name="Path 37" d="M280.289,170.268a.505.505,0,0,0,0,.427.594.594,0,0,0,.27.326,1.8,1.8,0,0,0,.64.22,2.819,2.819,0,0,0,.69.006,7.282,7.282,0,0,0,1.386-.339c.546-.176,1.1-.389,1.662-.627s1.1-.5,1.612-.759a10.267,10.267,0,0,0,1.261-.753,1.5,1.5,0,0,1,.176-.082c.063-.025.113,0,.163.063a.29.29,0,0,1,.063.194.249.249,0,0,1-.125.2,8.424,8.424,0,0,1-1.48.91c-.571.282-1.154.533-1.737.759-.163.063-.4.157-.684.27s-.615.232-.96.339-.7.194-1.06.27a3.63,3.63,0,0,1-1.022.069,1.938,1.938,0,0,1-.84-.251,1.083,1.083,0,0,1-.5-.7,1.424,1.424,0,0,1,.132-.991,4.169,4.169,0,0,1,.74-1.06,8.21,8.21,0,0,1,1.123-.979,8.682,8.682,0,0,1,1.248-.753,3.852,3.852,0,0,1,1.142-.376.944.944,0,0,1,.79.157.5.5,0,0,1,.207.458.992.992,0,0,1-.207.477,2.951,2.951,0,0,1-.408.433,3.664,3.664,0,0,1-.4.307c-.213.163-.489.345-.822.558s-.684.408-1.048.59a11.363,11.363,0,0,1-1.085.47A2.508,2.508,0,0,1,280.289,170.268Zm.282-.552a7.384,7.384,0,0,0,1.029-.332c.383-.151.765-.326,1.148-.521a8.873,8.873,0,0,0,1.079-.665,3.69,3.69,0,0,0,.822-.8c.119-.169.119-.263.006-.282a1.186,1.186,0,0,0-.439.05,5.229,5.229,0,0,0-.527.182c-.169.069-.263.107-.276.107a5.254,5.254,0,0,0-.784.383,7.442,7.442,0,0,0-.809.527,5.859,5.859,0,0,0-.721.633,3.468,3.468,0,0,0-.521.709Z" transform="translate(-104.925 -62.5)" fill="#23373f"/>
  <path id="Path_38" data-name="Path 38" d="M292.028,169.3c.132-.169.326-.433.577-.771a8.4,8.4,0,0,1,.859-.985,4.565,4.565,0,0,1,.966-.74.876.876,0,0,1,.9-.044.97.97,0,0,1,.364.345,1.332,1.332,0,0,1,.144.389c.025.132.056.263.082.4a.616.616,0,0,0,.194.345.783.783,0,0,0,.533.2,3.7,3.7,0,0,0,.74-.025,7.011,7.011,0,0,0,.715-.125c.22-.05.383-.088.5-.107.151-.019.238.031.257.157a.315.315,0,0,1-.194.276,1.158,1.158,0,0,1-.307.119c-.138.031-.295.063-.477.094a4,4,0,0,1-.558.056,4.19,4.19,0,0,1-.565-.013c-.169-.019-.326-.044-.477-.069a.991.991,0,0,1-.37-.138.865.865,0,0,1-.358-.508c-.063-.22-.132-.433-.194-.621a.708.708,0,0,0-.282-.4c-.125-.075-.326-.019-.608.176a6.071,6.071,0,0,0-1.16,1.11c-.345.433-.684.84-1.029,1.229-.226.289-.452.577-.69.872s-.477.577-.709.853a.246.246,0,0,1-.314.069.176.176,0,0,1-.094-.257,7.129,7.129,0,0,1,.489-.947,10.37,10.37,0,0,0,.508-.928c.257-.5.508-1,.753-1.518a16.449,16.449,0,0,1,.815-1.5.288.288,0,0,1,.339-.132c.132.044.169.138.107.295a8.923,8.923,0,0,1-.69,1.443c-.276.47-.527.935-.759,1.405Z" transform="translate(-108.929 -62.321)" fill="#23373f"/>
  <path id="Path_39" data-name="Path 39" d="M306.1,169.117q.386-.226.978-.527c.4-.2.809-.389,1.236-.577s.841-.351,1.242-.5a4.6,4.6,0,0,1,.972-.257.2.2,0,0,1,.22.188c.019.132-.05.213-.22.251a15.545,15.545,0,0,0-1.675.577,19.418,19.418,0,0,0-2.459,1.2.6.6,0,0,1,.151.7,2.916,2.916,0,0,1-.583.891,7.72,7.72,0,0,1-1.041.928c-.408.307-.815.6-1.223.859a11.147,11.147,0,0,1-1.129.646,2.969,2.969,0,0,1-.772.289.468.468,0,0,1-.358-.088.3.3,0,0,1-.138-.326.654.654,0,0,1,.151-.326,1.622,1.622,0,0,0,.213-.314c.615-.608,1.242-1.192,1.894-1.737s1.317-1.085,2-1.6a6.914,6.914,0,0,0-.891-.27,6.679,6.679,0,0,1-.966-.307,2.53,2.53,0,0,1-.8-.5,1.169,1.169,0,0,1-.364-.853,1.136,1.136,0,0,1,.314-.866,3.4,3.4,0,0,1,.47-.439c.22-.176.464-.351.74-.533a8.689,8.689,0,0,1,.84-.5,3.1,3.1,0,0,1,.822-.307,1.02,1.02,0,0,1,.652.044.629.629,0,0,1,.326.533,1.057,1.057,0,0,1-.138.6,4.673,4.673,0,0,1-.427.7,4.6,4.6,0,0,1-.552.64,1.9,1.9,0,0,1-.527.376.278.278,0,0,1-.2.013.385.385,0,0,1-.151-.107.207.207,0,0,1-.038-.176.247.247,0,0,1,.119-.169c.2-.151.389-.295.565-.439a2.722,2.722,0,0,0,.477-.521,3.961,3.961,0,0,0,.213-.4.747.747,0,0,0,.088-.358.236.236,0,0,0-.157-.22.761.761,0,0,0-.5.056,4.012,4.012,0,0,0-.765.37,7.067,7.067,0,0,0-.778.533,5.594,5.594,0,0,0-.621.558.992.992,0,0,0-.289.458.669.669,0,0,0,.245.684,2.969,2.969,0,0,0,.841.489,8.949,8.949,0,0,0,1.073.351c.376.1.69.194.941.276Zm-4.134,4.052a3.782,3.782,0,0,0,.615-.27c.289-.144.6-.32.935-.533s.677-.439,1.022-.684a7.41,7.41,0,0,0,.884-.728,2.812,2.812,0,0,0,.533-.677.447.447,0,0,0-.038-.539l-.038.025c-.32.263-.659.527-1,.8s-.7.533-1.048.809-.684.558-1,.859a7.921,7.921,0,0,0-.853.941Z" transform="translate(-113.004 -61.814)" fill="#23373f"/>
  <path id="Path_40" data-name="Path 40" d="M319.106,168.26a2.076,2.076,0,0,0,.772-.483,10.083,10.083,0,0,0,.866-.9c.295-.345.6-.721.91-1.129s.6-.809.884-1.2.539-.759.771-1.1.427-.621.59-.834a.239.239,0,0,1,.332-.1c.1.05.094.194-.013.439a5.132,5.132,0,0,1-.445.778c-.188.276-.383.546-.577.8l-.4.508c-.063.088-.2.27-.414.558s-.452.6-.728.947-.565.69-.872,1.029a5.684,5.684,0,0,1-.859.8,1.756,1.756,0,0,1-.878.414c-.263.025-.439-.151-.527-.533a1.281,1.281,0,0,1,.031-.583,7.693,7.693,0,0,1,.226-.79c.094-.276.182-.539.276-.8a4.956,4.956,0,0,0,.188-.6,7.13,7.13,0,0,0-.483.539c-.226.27-.5.577-.815.909s-.646.671-1,1.01a10.4,10.4,0,0,1-1,.866,2.746,2.746,0,0,1-.847.464.4.4,0,0,1-.533-.194.807.807,0,0,1,.05-.521c.075-.263.194-.577.339-.941s.32-.746.521-1.154.389-.8.571-1.154.351-.677.508-.96a4.367,4.367,0,0,1,.351-.564.249.249,0,0,1,.332-.075c.132.063.163.169.1.326a9.243,9.243,0,0,1-.6,1.192c-.238.4-.452.79-.646,1.173-.176.351-.358.721-.546,1.091a6.988,6.988,0,0,0-.439,1.129.758.758,0,0,0-.038.144c-.013.069,0,.082.044.038.176-.144.339-.276.5-.4a4.127,4.127,0,0,0,.483-.42l1.01-.972c.326-.314.646-.64.966-.991.226-.245.445-.5.652-.759s.427-.5.652-.734a.253.253,0,0,1,.276-.063.219.219,0,0,1,.188.207,2.9,2.9,0,0,1-.1.709c-.075.32-.157.652-.257.985-.05.169-.1.358-.163.565s-.113.408-.157.6a4.191,4.191,0,0,0-.1.483c-.025.132-.013.22.031.257Z" transform="translate(-117.97 -60.95)" fill="#23373f"/>
  <path id="Path_41" data-name="Path 41" d="M335.814,166.621c.019.082-.107.163-.376.238a7.138,7.138,0,0,1-.966.188c-.376.05-.753.1-1.135.138s-.677.069-.884.094A5.61,5.61,0,0,1,330.727,169a2.747,2.747,0,0,1-1.618.5.906.906,0,0,1-.834-.778,3.29,3.29,0,0,1,.633-2.089v-.163a1.584,1.584,0,0,1,.32-1.217,2.711,2.711,0,0,1,1-.8,3.415,3.415,0,0,1,1.28-.3,2.152,2.152,0,0,1,1.142.245,1.191,1.191,0,0,1,.577.866,2.4,2.4,0,0,1-.408,1.53c.163-.025.376-.044.633-.075s.521-.056.8-.1.539-.082.79-.119.458-.075.621-.113c.069-.019.107,0,.107.056a.653.653,0,0,0,.031.182Zm-6.523.42a3.92,3.92,0,0,0-.232.4,3.567,3.567,0,0,0-.245.6,1.517,1.517,0,0,0-.056.6.38.38,0,0,0,.332.345.952.952,0,0,0,.7-.119,5.762,5.762,0,0,0,.853-.508,7.956,7.956,0,0,0,.765-.608,5.765,5.765,0,0,0,.439-.433,6.883,6.883,0,0,1-.759.069,4.031,4.031,0,0,1-.565-.031,5.17,5.17,0,0,1-.552-.119c-.188-.05-.42-.113-.69-.182Zm2.954-.263a2.2,2.2,0,0,0,.251-.47,2.528,2.528,0,0,0,.157-.577,1.479,1.479,0,0,0-.019-.577.821.821,0,0,0-.282-.452,1.137,1.137,0,0,0-.822-.176,2.634,2.634,0,0,0-.966.307,3.335,3.335,0,0,0-.815.608,1.148,1.148,0,0,0-.37.734c.132-.088.232-.075.282.038s.019.245-.119.389a1.4,1.4,0,0,0,.583.238,3.869,3.869,0,0,0,.728.069,7.217,7.217,0,0,0,.74-.038c.245-.025.464-.056.652-.094Z" transform="translate(-123.105 -61.575)" fill="#23373f"/>
  <path id="Path_42" data-name="Path 42" d="M344.229,165.357c-.157.176-.408.445-.746.822s-.759.809-1.267,1.3a5.779,5.779,0,0,1-1.593,1.185,1.123,1.123,0,0,1-1.01.088c-.22-.132-.326-.427-.314-.878a4.823,4.823,0,0,1,.489-1.731,9.6,9.6,0,0,1,.734-1.411,9.347,9.347,0,0,1,.6-.828.235.235,0,0,1,.376-.019.17.17,0,0,1,.069.163.893.893,0,0,1-.056.169c-.276.414-.5.765-.671,1.047a9.725,9.725,0,0,0-.546,1.041,5.181,5.181,0,0,0-.452,1.3c-.044.326,0,.533.125.627s.358.044.671-.138a6.587,6.587,0,0,0,1.236-1.016c.332-.32.646-.64.947-.96s.571-.621.815-.9.464-.533.652-.746.339-.389.445-.521a.246.246,0,0,1,.3-.056.225.225,0,0,1,.151.263,1.687,1.687,0,0,1-.1.314c-.056.138-.125.307-.207.5s-.163.4-.251.633-.176.458-.257.684a5.928,5.928,0,0,0-.326,1.229.734.734,0,0,0,.132.627.683.683,0,0,0,.64.075,6.824,6.824,0,0,0,1.192-.433,13.763,13.763,0,0,0,1.612-.884,7.018,7.018,0,0,0,1.267-.991c.119-.132.226-.138.314-.025a.265.265,0,0,1-.025.364,1.893,1.893,0,0,1-.364.32c-.188.138-.42.3-.684.489s-.577.376-.916.571-.677.376-1.016.546c-1.173.583-1.951.746-2.34.483s-.439-.9-.157-1.938a4.351,4.351,0,0,1,.27-.759c.107-.238.188-.445.251-.615Z" transform="translate(-127.257 -61.447)" fill="#23373f"/>
  <path id="Path_43" data-name="Path 43" d="M357.141,164.868c.113-.238.257-.565.427-.966s.345-.822.533-1.261.376-.866.577-1.28.37-.765.521-1.048c-.169.27-.376.6-.633.991s-.527.8-.828,1.229-.608.853-.935,1.267a11.416,11.416,0,0,1-.953,1.091,4.019,4.019,0,0,1-.884.7.8.8,0,0,1-.715.094.564.564,0,0,1-.333-.37,1.835,1.835,0,0,1-.107-.521,4.619,4.619,0,0,1,.163-1.179,5.3,5.3,0,0,1,.477-1.2,3.711,3.711,0,0,1,.746-.966,1.921,1.921,0,0,1,.978-.5,1.6,1.6,0,0,1,.759.088,1.029,1.029,0,0,1,.608.489c.088.132.082.232-.025.3a.235.235,0,0,1-.314-.038,1.55,1.55,0,0,0-.583-.364,1.153,1.153,0,0,0-.684.075,1.668,1.668,0,0,0-.922.834,4.426,4.426,0,0,0-.64,2.315q0,.4.151.508c.1.075.257.05.464-.075a4.272,4.272,0,0,0,.847-.8,13.605,13.605,0,0,0,1.091-1.38c.383-.546.778-1.116,1.173-1.725s.784-1.217,1.167-1.825.734-1.179,1.06-1.706.608-.985.866-1.367a7.36,7.36,0,0,1,.577-.8.232.232,0,0,1,.3-.038.228.228,0,0,1,.088.307,9.22,9.22,0,0,1-.659,1.317c-.263.439-.508.872-.721,1.3q-.612,1.148-1.185,2.314c-.383.778-.753,1.568-1.117,2.377l-1.436,3.2c-.1.238-.207.5-.32.784a8.344,8.344,0,0,1-.358.784.266.266,0,0,1-.132.132.139.139,0,0,1-.138-.025.293.293,0,0,1-.1-.138.26.26,0,0,1,0-.194,3.428,3.428,0,0,1,.188-.634c.094-.238.194-.483.307-.74s.232-.5.351-.74.219-.445.295-.615Z" transform="translate(-132.694 -58.317)" fill="#23373f"/>
  <path id="Path_44" data-name="Path 44" d="M364.336,166.208a.505.505,0,0,0,0,.427.594.594,0,0,0,.27.326,1.8,1.8,0,0,0,.64.22,2.816,2.816,0,0,0,.69.006,7.283,7.283,0,0,0,1.386-.339c.546-.176,1.1-.389,1.662-.627s1.1-.5,1.612-.759a11.125,11.125,0,0,0,1.261-.753,1.5,1.5,0,0,1,.176-.082c.063-.025.113,0,.163.063a.29.29,0,0,1,.063.194.249.249,0,0,1-.125.2,8.424,8.424,0,0,1-1.48.91c-.571.282-1.154.533-1.737.759-.163.063-.4.157-.69.27s-.615.232-.953.339-.7.194-1.066.27a3.63,3.63,0,0,1-1.022.069,1.939,1.939,0,0,1-.84-.251,1.083,1.083,0,0,1-.5-.7,1.424,1.424,0,0,1,.132-.991,4.17,4.17,0,0,1,.74-1.06,8.211,8.211,0,0,1,1.123-.978,9.294,9.294,0,0,1,1.248-.753,3.853,3.853,0,0,1,1.142-.376.944.944,0,0,1,.79.157.521.521,0,0,1,.213.458.992.992,0,0,1-.207.477,2.952,2.952,0,0,1-.408.433,4.7,4.7,0,0,1-.4.307c-.213.163-.489.351-.822.558a11.944,11.944,0,0,1-1.048.59,9.891,9.891,0,0,1-1.085.464,2.507,2.507,0,0,1-.935.169Zm.289-.552a7.391,7.391,0,0,0,1.029-.332,11.589,11.589,0,0,0,1.148-.521,8.87,8.87,0,0,0,1.079-.665,3.689,3.689,0,0,0,.822-.8c.119-.169.119-.263.006-.282a1.066,1.066,0,0,0-.439.05,5.217,5.217,0,0,0-.527.182c-.169.069-.263.107-.276.107a5.254,5.254,0,0,0-.784.383,7.443,7.443,0,0,0-.809.527,5.854,5.854,0,0,0-.721.633,3.106,3.106,0,0,0-.521.709Z" transform="translate(-136.605 -60.987)" fill="#23373f"/>
  <path id="Path_45" data-name="Path 45" d="M377.916,165.562a.188.188,0,0,1,0-.182.226.226,0,0,1,.151-.107,7.911,7.911,0,0,1,1.474-.263c.527-.044,1.029-.082,1.5-.1a.19.19,0,0,1,.163.069.328.328,0,0,1,.063.169.275.275,0,0,1-.044.169.174.174,0,0,1-.151.088c-.458.025-.922.05-1.4.088a11.44,11.44,0,0,0-1.392.194.581.581,0,0,1-.207.019c-.069,0-.119-.05-.157-.144Z" transform="translate(-141.856 -61.859)" fill="#23373f"/>
  <path id="Path_46" data-name="Path 46" d="M398.605,149.268a10.633,10.633,0,0,1,1.581.533,5.133,5.133,0,0,1,1.317.815,3.287,3.287,0,0,1,.859,1.192,3.579,3.579,0,0,1,.251,1.675,4.853,4.853,0,0,1-.677,2.177,8.461,8.461,0,0,1-1.568,1.919,13.968,13.968,0,0,1-2.176,1.631,20,20,0,0,1-2.49,1.292,20.638,20.638,0,0,1-2.5.891,14.6,14.6,0,0,1-2.227.452c-.182.339-.37.7-.577,1.1a7.346,7.346,0,0,1-.659,1.035c-.107.144-.22.182-.339.107a.244.244,0,0,1-.088-.339,5.29,5.29,0,0,1,.477-.9c.207-.32.389-.621.539-.91-.276.025-.6.063-.947.1a4.028,4.028,0,0,1-.953,0c-.169-.019-.251-.1-.251-.245a.255.255,0,0,1,.226-.27,5.5,5.5,0,0,1,1.123-.056,5.09,5.09,0,0,0,1.123-.056c.778-1.292,1.53-2.591,2.271-3.883s1.5-2.578,2.289-3.864c.414-.684.84-1.355,1.28-2.007s.872-1.33,1.286-2.013c-.383-.063-.759-.113-1.135-.151s-.759-.063-1.154-.069c-.282,0-.7.019-1.261.05s-1.192.088-1.882.163-1.418.169-2.17.282a21.218,21.218,0,0,0-2.089.414,9.164,9.164,0,0,0-1.637.565,1.651,1.651,0,0,0-.847.7.415.415,0,0,0,.019.4,1.8,1.8,0,0,0,.27.351,2.5,2.5,0,0,0,.414.332c.169.113.326.213.452.289a5.365,5.365,0,0,1,.527.326c.163.119.332.232.508.351.289.194.621.4.991.615s.746.439,1.129.659.746.439,1.1.652a9.17,9.17,0,0,1,.878.59c.144.107.182.213.119.339s-.182.151-.351.088a6.536,6.536,0,0,1-.652-.32c-.276-.151-.59-.332-.922-.533s-.69-.427-1.054-.671-.721-.477-1.06-.7-.652-.433-.941-.621-.508-.339-.671-.452c-.132-.088-.276-.188-.445-.3a2.537,2.537,0,0,1-.445-.37,1.672,1.672,0,0,1-.314-.452.9.9,0,0,1-.069-.533,1.15,1.15,0,0,1,.477-.715,4.552,4.552,0,0,1,1.016-.577,9.708,9.708,0,0,1,1.33-.445c.483-.125.953-.238,1.418-.326s.891-.163,1.286-.22.709-.1.947-.138a24.582,24.582,0,0,1,3.249-.27,17.786,17.786,0,0,1,3.255.245c.194-.3.383-.6.571-.91s.383-.6.6-.891a.435.435,0,0,1,.132-.132c.063-.044.119-.031.182.031a.219.219,0,0,1,.163.138.294.294,0,0,1,0,.207c-.194.27-.383.546-.558.815s-.351.552-.533.834Zm-7.3,12.043a15.593,15.593,0,0,0,2.108-.527,22.766,22.766,0,0,0,2.452-.947,19.241,19.241,0,0,0,2.446-1.323,11.8,11.8,0,0,0,2.076-1.656,7.223,7.223,0,0,0,1.38-1.932,3.717,3.717,0,0,0,.332-2.183,2.688,2.688,0,0,0-.47-1.223,3.511,3.511,0,0,0-.9-.878,4.819,4.819,0,0,0-1.167-.577,8.657,8.657,0,0,0-1.273-.332c-.144.245-.289.477-.439.7s-.295.464-.439.7q-1.571,2.54-3.086,5.062t-3.023,5.1Z" transform="translate(-144.531 -55.268)" fill="#23373f"/>
  <path id="Path_47" data-name="Path 47" d="M420.634,162.517c.019.082-.107.163-.376.238a7.142,7.142,0,0,1-.966.188c-.376.05-.753.1-1.135.138s-.677.069-.884.094a5.609,5.609,0,0,1-1.725,1.719,2.747,2.747,0,0,1-1.618.5.906.906,0,0,1-.834-.778,3.314,3.314,0,0,1,.634-2.095v-.163a1.59,1.59,0,0,1,.32-1.217,2.712,2.712,0,0,1,1-.8,3.416,3.416,0,0,1,1.28-.3,2.152,2.152,0,0,1,1.142.245,1.191,1.191,0,0,1,.577.866,2.414,2.414,0,0,1-.408,1.53c.163-.019.376-.044.633-.069s.521-.063.8-.1.539-.082.79-.119.458-.075.621-.113c.069-.019.107,0,.107.056a.653.653,0,0,0,.031.182Zm-6.523.42a3.289,3.289,0,0,0-.232.4,3.56,3.56,0,0,0-.245.6,1.645,1.645,0,0,0-.056.6.38.38,0,0,0,.332.345.952.952,0,0,0,.7-.119,5.765,5.765,0,0,0,.853-.508,7.956,7.956,0,0,0,.765-.608,4.573,4.573,0,0,0,.439-.439,6.882,6.882,0,0,1-.759.069,3.241,3.241,0,0,1-.565-.038,3.985,3.985,0,0,1-.552-.119c-.188-.05-.42-.113-.69-.182Zm2.961-.263a2.2,2.2,0,0,0,.251-.47,2.539,2.539,0,0,0,.163-.577,1.478,1.478,0,0,0-.019-.577.821.821,0,0,0-.282-.452,1.137,1.137,0,0,0-.822-.176,2.6,2.6,0,0,0-.966.307,3.335,3.335,0,0,0-.815.608,1.148,1.148,0,0,0-.37.734q.207-.132.282.038c.056.113.019.245-.113.389a1.364,1.364,0,0,0,.583.238,3.852,3.852,0,0,0,.721.069,7.22,7.22,0,0,0,.74-.038c.245-.025.458-.056.652-.094Z" transform="translate(-154.968 -60.043)" fill="#23373f"/>
  <path id="Path_48" data-name="Path 48" d="M424.2,162.914c.132-.169.326-.433.577-.772a8.4,8.4,0,0,1,.859-.985,4.565,4.565,0,0,1,.966-.74.876.876,0,0,1,.9-.044.925.925,0,0,1,.364.345,1.332,1.332,0,0,1,.144.389c.025.132.056.263.082.4a.616.616,0,0,0,.194.345.783.783,0,0,0,.533.2,3.7,3.7,0,0,0,.74-.025,7.008,7.008,0,0,0,.715-.125c.22-.05.383-.088.5-.107.151-.019.238.031.257.151a.316.316,0,0,1-.194.276,1.159,1.159,0,0,1-.307.119c-.138.031-.295.069-.477.094a4.007,4.007,0,0,1-.558.056,5.569,5.569,0,0,1-.564-.013c-.169-.019-.326-.044-.477-.069a.991.991,0,0,1-.37-.138.865.865,0,0,1-.358-.508c-.069-.226-.132-.433-.194-.621a.707.707,0,0,0-.282-.4c-.125-.075-.326-.019-.608.176a6.068,6.068,0,0,0-1.16,1.11c-.339.433-.684.841-1.029,1.229-.226.289-.452.577-.69.872s-.47.577-.709.853a.24.24,0,0,1-.307.069.177.177,0,0,1-.094-.257,7.128,7.128,0,0,1,.489-.947,10.385,10.385,0,0,0,.508-.928c.257-.5.508-1,.753-1.518a16.448,16.448,0,0,1,.815-1.5.288.288,0,0,1,.339-.132c.132.044.169.138.107.295a8.959,8.959,0,0,1-.7,1.443c-.282.47-.527.935-.759,1.405Z" transform="translate(-158.53 -59.939)" fill="#23373f"/>
  <path id="Path_49" data-name="Path 49" d="M437.191,161.28c.251-.025.546-.063.884-.107s.684-.094,1.029-.151.677-.119,1-.182.6-.125.815-.176c.163-.038.27.013.314.151a.219.219,0,0,1-.163.295,1.584,1.584,0,0,1-.351.082c-.22.038-.5.088-.815.144s-.671.119-1.035.182-.709.125-1.035.176-.6.094-.828.132-.358.056-.383.063a4.353,4.353,0,0,1-.489.427,5.222,5.222,0,0,1-.721.458,2.562,2.562,0,0,1-.753.276.6.6,0,0,1-.583-.169.391.391,0,0,1-.025-.577.915.915,0,0,1,.445-.314c.207-.082.427-.151.659-.22s.458-.125.677-.176a2.683,2.683,0,0,0,.533-.169,1.743,1.743,0,0,0,.521-.489,6.024,6.024,0,0,0,.565-.847c.282-.5.389-.828.326-1s-.213-.213-.445-.132a2.007,2.007,0,0,0-.4.207c-.144.088-.282.188-.427.289a4.069,4.069,0,0,0-.389.32,3.492,3.492,0,0,1-.3.251,10.589,10.589,0,0,0-1.562,1.618c-.464.6-.928,1.185-1.386,1.775a10.842,10.842,0,0,0-.684.966c-.207.326-.408.652-.6.985s-.389.652-.577.985a11.269,11.269,0,0,1-.646.966c-.107.144-.213.182-.32.107a.3.3,0,0,1-.113-.339c.05-.182.107-.37.169-.558a1.735,1.735,0,0,1,.3-.521c.3-.389.615-.822.928-1.311s.64-1,.96-1.537.646-1.1.966-1.681.627-1.16.922-1.744c.188-.37.383-.74.571-1.116s.4-.734.615-1.079a.237.237,0,0,1,.32-.088c.132.056.169.163.107.314-.151.351-.326.715-.521,1.091s-.4.728-.59,1.054c-.144.245-.282.483-.427.728s-.282.489-.427.746c.144-.176.383-.433.715-.778s.69-.69,1.066-1.035a8.759,8.759,0,0,1,1.129-.866,1.369,1.369,0,0,1,.916-.282c.339.082.527.245.558.5a1.812,1.812,0,0,1-.113.847,3.97,3.97,0,0,1-.452.891,4.683,4.683,0,0,1-.458.621Zm-2.534,1.217a.9.9,0,0,0,.715-.307c-.125.05-.245.094-.37.132a1.358,1.358,0,0,0-.345.169Z" transform="translate(-161.251 -59.07)" fill="#23373f"/>
</svg>
